<?xml version="1.0" encoding="UTF-8"?>
<!DOCTYPE svg PUBLIC "-//W3C//DTD SVG 1.1//EN" "http://www.w3.org/Graphics/SVG/1.1/DTD/svg11.dtd">
<!-- Creator: CorelDRAW 2019 (64-Bit) -->
<svg xmlns="http://www.w3.org/2000/svg" xml:space="preserve" width="231.649mm" height="42.1212mm" version="1.1" style="shape-rendering:geometricPrecision; text-rendering:geometricPrecision; image-rendering:optimizeQuality; fill-rule:evenodd; clip-rule:evenodd"
viewBox="0 0 23253.54 4228.24"
 xmlns:xlink="http://www.w3.org/1999/xlink">
 <defs>
  <style type="text/css">
   <![CDATA[
    .fil4 {fill:#373435}
    .fil0 {fill:#D83135;fill-rule:nonzero}
    .fil1 {fill:#28212A;fill-rule:nonzero}
    .fil2 {fill:url(#id0)}
    .fil6 {fill:url(#id1)}
    .fil5 {fill:url(#id2)}
    .fil3 {fill:url(#id3)}
    .fil7 {fill:url(#id4);fill-rule:nonzero}
    .fil8 {fill:url(#id5);fill-rule:nonzero}
   ]]>
  </style>
  <linearGradient id="id0" gradientUnits="userSpaceOnUse" x1="400.88" y1="1887.35" x2="2823.88" y2="1003.07">
   <stop offset="0" style="stop-opacity:1; stop-color:#ED3237"/>
   <stop offset="1" style="stop-opacity:1; stop-color:#783D3D"/>
  </linearGradient>
  <linearGradient id="id1" gradientUnits="userSpaceOnUse" x1="2004.51" y1="2943.37" x2="4676.77" y2="2701.31">
   <stop offset="0" style="stop-opacity:1; stop-color:#BDBFC1"/>
   <stop offset="1" style="stop-opacity:1; stop-color:#373435"/>
  </linearGradient>
  <linearGradient id="id2" gradientUnits="userSpaceOnUse" xlink:href="#id0" x1="-192.99" y1="1623.01" x2="3511.45" y2="2672.96">
  </linearGradient>
  <linearGradient id="id3" gradientUnits="userSpaceOnUse" xlink:href="#id1" x1="1027.89" y1="3163.67" x2="4023.54" y2="555.07">
  </linearGradient>
  <linearGradient id="id4" gradientUnits="userSpaceOnUse" x1="2702.65" y1="1021.68" x2="4593.53" y2="2062.31">
   <stop offset="0" style="stop-opacity:1; stop-color:#A9ABAE"/>
   <stop offset="1" style="stop-opacity:1; stop-color:#FEFEFE"/>
  </linearGradient>
  <linearGradient id="id5" gradientUnits="userSpaceOnUse" x1="3700.21" y1="844.86" x2="804.62" y2="1684.76">
   <stop offset="0" style="stop-opacity:1; stop-color:#ED3237"/>
   <stop offset="1" style="stop-opacity:1; stop-color:#FEFEFE"/>
  </linearGradient>
 </defs>
 <g id="Capa_x0020_1">
  <metadata id="CorelCorpID_0Corel-Layer"/>
  <g id="_957155552">
   <path class="fil0" d="M7519.78 556.08c-128.89,2.87 -264.93,23.63 -408.14,62.3 -277.82,73.04 -446.09,191.18 -504.8,354.43 -10.03,31.51 -15.04,60.86 -15.04,88.08 0,105.97 80.91,185.45 242.74,238.44 114.57,37.23 242.74,55.85 384.51,55.85l268.51 0c68.74,0 130.32,7.87 184.73,23.63 80.2,22.91 120.3,59.43 120.3,109.55 0,11.45 -2.15,23.63 -6.44,36.52 -22.92,63.01 -91.66,107.4 -206.22,133.18 -63.01,14.32 -127.46,21.48 -193.34,21.48l-973.08 0 -83.78 236.29 1140.64 0c127.46,-2.86 262.78,-23.63 405.99,-62.3 279.25,-73.03 448.24,-191.18 506.95,-354.43 10.02,-31.51 15.04,-60.86 15.04,-88.08 0,-107.4 -80.92,-186.88 -242.74,-238.44 -114.57,-37.23 -243.45,-55.84 -386.65,-55.84l-259.92 0c-70.17,0 -132.46,-7.88 -186.88,-23.63 -80.2,-22.92 -120.3,-59.44 -120.3,-109.56 0,-11.45 2.87,-23.63 8.59,-36.51 21.48,-63.02 90.22,-107.41 206.22,-133.19 61.58,-14.31 125.31,-21.48 191.18,-21.48l966.64 0 85.93 -236.29 -1140.64 0zm2396.91 -4.3c-160.39,0 -334.38,30.8 -521.98,92.37 -363.75,117.43 -596.45,320.06 -698.13,607.91 -24.34,67.31 -36.52,130.32 -36.52,189.03 0,158.96 82.34,281.4 247.03,367.33 138.91,71.6 309.32,107.4 511.24,107.4l915.09 0 83.78 -236.29 -842.05 0c-104.54,-1.44 -187.61,-29.35 -249.18,-83.77 -65.87,-57.29 -97.38,-138.92 -94.52,-244.88l1303.89 0 83.78 -236.29 -1308.19 0c54.42,-95.95 132.83,-173.99 235.22,-234.14 102.39,-60.15 212.3,-90.22 329.73,-90.22l859.23 0 83.78 -238.44 -902.2 0zm3031.31 461.84c14.31,-38.67 21.48,-75.9 21.48,-111.7 0,-124.59 -85.93,-217.68 -257.77,-279.25 -127.46,-45.82 -272.1,-68.74 -433.91,-68.74l-1125.6 0 -483.32 1361.89 537.03 0 146.07 -405.99 515.54 0 208.36 405.99 528.42 0 -240.59 -470.43c320.78,-93.08 515.54,-237 584.29,-431.77zm-597.17 27.93c-32.95,93.08 -111.71,159.68 -236.29,199.77 -68.74,21.48 -131.75,32.22 -189.03,32.22l-489.77 0 171.84 -483.32 474.73 0c74.46,0 137.47,14.32 189.03,42.96 63.01,31.51 94.51,77.33 94.51,137.47 0,21.48 -5.01,45.11 -15.03,70.89zm2390.46 -487.62l-399.54 1125.6 -137.47 0c-168.98,0 -295,-53.7 -378.07,-161.1 -68.73,-91.65 -103.1,-215.52 -103.1,-371.62 0,-143.21 26.49,-290.71 79.47,-442.51l53.7 -150.37 -534.87 0 -55.85 158.97c-54.42,154.66 -81.63,299.3 -81.63,433.91 0,234.86 78.77,420.3 236.29,556.35 161.83,141.77 389.52,212.66 683.09,212.66l691.69 2.15 485.47 -1364.04 -539.17 0zm872.49 0l-483.32 1361.89 537.03 0 485.47 -1361.89 -539.17 0zm1578.85 2.15c-128.89,2.87 -264.93,23.63 -408.14,62.3 -277.82,73.04 -446.09,191.18 -504.8,354.43 -10.03,31.51 -15.04,60.86 -15.04,88.08 0,105.97 80.91,185.45 242.74,238.44 114.57,37.23 242.74,55.85 384.51,55.85l268.51 0c68.74,0 130.32,7.87 184.73,23.63 80.2,22.91 120.3,59.43 120.3,109.55 0,11.45 -2.15,23.63 -6.44,36.52 -22.92,63.01 -91.66,107.4 -206.22,133.18 -63.01,14.32 -127.46,21.48 -193.34,21.48l-973.08 0 -83.78 236.29 1140.64 0c127.46,-2.86 262.78,-23.63 405.99,-62.3 279.25,-73.03 448.24,-191.18 506.95,-354.43 10.02,-31.51 15.04,-60.86 15.04,-88.08 0,-107.4 -80.92,-186.88 -242.74,-238.44 -114.57,-37.23 -243.45,-55.84 -386.65,-55.84l-259.92 0c-70.17,0 -132.46,-7.88 -186.88,-23.63 -80.2,-22.92 -120.3,-59.44 -120.3,-109.56 0,-11.45 2.87,-23.63 8.59,-36.51 21.48,-63.02 90.22,-107.41 206.22,-133.19 61.58,-14.31 125.31,-21.48 191.18,-21.48l966.64 0 85.93 -236.29 -1140.64 0zm2396.91 -4.3c-160.39,0 -334.38,30.8 -521.98,92.37 -363.75,117.43 -596.45,320.06 -698.13,607.91 -24.34,67.31 -36.52,130.32 -36.52,189.03 0,158.96 82.34,281.4 247.03,367.33 138.91,71.6 309.32,107.4 511.24,107.4l915.09 0 83.78 -236.29 -842.05 0c-104.54,-1.44 -187.61,-29.35 -249.18,-83.77 -65.87,-57.29 -97.38,-138.92 -94.52,-244.88l1303.89 0 83.78 -236.29 -1308.19 0c54.42,-95.95 132.83,-173.99 235.22,-234.14 102.39,-60.15 212.3,-90.22 329.73,-90.22l859.23 0 83.78 -238.44 -902.2 0zm1815.49 1127.75c-113.13,0 -202.99,-26.85 -269.58,-80.56 -66.59,-53.69 -99.89,-126.37 -99.89,-218.02 0,-47.26 10.03,-98.1 30.07,-152.52l240.59 -674.5 -534.88 0 -242.74 683.09c-24.34,70.18 -36.51,135.34 -36.51,195.48 0,160.39 80.91,284.26 242.74,371.63 137.47,74.46 308.61,111.7 513.39,111.7l857.09 2.15 83.78 -238.44 -784.06 0z"/>
   <path class="fil1" d="M5347.68 2950.06l0 -101.22 203.16 0c31.26,0 57.06,-7.44 77.41,-22.33 20.34,-14.89 30.51,-34.23 30.51,-58.05 0,-11.91 -2.72,-22.82 -8.18,-32.74 -5.46,-9.92 -12.9,-18.48 -22.33,-25.68 -9.43,-7.19 -20.84,-12.77 -34.24,-16.74 -13.39,-3.97 -27.78,-5.95 -43.16,-5.95l-46.14 0c-23.82,0 -45.89,-3.84 -66.23,-11.53 -20.35,-7.69 -37.95,-18.6 -52.84,-32.74 -14.89,-14.14 -26.54,-30.76 -34.98,-49.86 -8.43,-19.1 -12.65,-40.31 -12.65,-63.63 0,-22.83 4.34,-43.91 13.02,-63.26 8.68,-19.34 20.97,-36.22 36.84,-50.6 15.88,-14.38 34.98,-25.68 57.31,-33.86 22.33,-8.19 46.89,-12.29 73.68,-12.29l192.74 0 0 101.22 -197.95 0c-21.34,0 -38.21,5.83 -50.61,17.49 -12.4,11.66 -18.6,25.68 -18.6,42.05 0,17.86 6.32,32.74 18.97,44.65 12.66,11.92 29.4,17.87 50.24,17.87l57.3 0c25.8,0 49.62,4.34 71.44,13.02 21.83,8.68 40.69,20.96 56.57,36.84 15.88,15.88 28.28,34.73 37.21,56.56 8.92,21.83 13.39,45.65 13.39,71.45 0,26.29 -4.71,50.35 -14.13,72.19 -9.43,21.83 -22.95,40.69 -40.56,56.57 -17.61,15.87 -38.58,28.28 -62.89,37.21 -24.3,8.92 -51.35,13.39 -81.12,13.39l-203.16 0zm746.44 0l-288.01 0 0 -580.49 283.55 0 0 101.22 -182.33 0 0 134.7 157.03 0 0 100.47 -157.03 0 0 142.88 186.79 0 0 101.22zm480.02 0l-141.4 0 -154.06 -162.98c-8.92,-9.43 -15.75,-18.36 -20.46,-26.79 -4.72,-8.43 -7.08,-16.87 -7.08,-25.31 0,-31.75 20.1,-49.12 60.28,-52.1 54.09,-3.97 94.15,-14.76 120.2,-32.37 26.05,-17.61 39.07,-44.28 39.07,-79.99 0,-33.25 -10.05,-58.17 -30.14,-74.8 -20.09,-16.62 -48.75,-24.94 -85.96,-24.94l-111.63 0 0 479.28 -101.22 0 0 -580.49 215.08 0c30.27,0 58.79,4.35 85.59,13.03 26.79,8.68 49.98,21.33 69.59,37.95 19.59,16.62 35.09,37.33 46.51,62.14 11.41,24.81 17.12,53.34 17.12,85.59 0,19.35 -2.97,39.2 -8.92,59.54 -5.95,20.35 -15.88,39.45 -29.77,57.31 -13.89,17.86 -32.24,33.61 -55.07,47.26 -22.83,13.64 -51.36,23.19 -85.59,28.65l177.87 189.03zm-12.65 -580.49l119.82 0 249.31 392.2 0 -392.2 100.47 0 0 534.35c0,15.39 -3.84,27.54 -11.53,36.47 -7.69,8.93 -17.99,13.4 -30.89,13.4 -11.41,0 -22.2,-2.24 -32.37,-6.71 -10.17,-4.46 -18.73,-12.15 -25.68,-23.07l-369.13 -554.44zm534.35 580.49l0 -580.49 101.22 0 0 580.49 -101.22 0zm446.53 0c-43.16,0 -82.74,-7.57 -118.7,-22.7 -35.98,-15.14 -66.73,-35.98 -92.28,-62.52 -25.56,-26.54 -45.52,-57.92 -59.92,-94.14 -14.38,-36.22 -21.58,-75.17 -21.58,-116.85 0,-42.17 7.08,-80.63 21.21,-115.35 14.14,-34.73 33.99,-64.63 59.54,-89.68 25.56,-25.06 56.31,-44.53 92.29,-58.42 35.97,-13.89 75.78,-20.84 119.45,-20.84l84.83 0 0 101.22 -84.83 0c-27.79,0 -53.46,4.84 -77.03,14.52 -23.56,9.68 -43.91,22.95 -61.02,39.81 -17.12,16.87 -30.52,37.09 -40.18,60.65 -9.68,23.57 -14.52,49 -14.52,76.29 0,27.28 4.71,52.34 14.14,75.17 9.43,22.82 22.57,42.54 39.44,59.17 16.86,16.61 37.21,29.51 61.02,38.7 23.82,9.17 49.86,13.76 78.15,13.76l84.83 0 0 101.22 -84.83 0zm129.49 0l0 -580.49 101.22 0 0 580.49 -101.22 0zm451 0c-42.67,0 -81.99,-7.57 -117.96,-22.7 -35.98,-15.14 -66.85,-36.1 -92.66,-62.89 -25.8,-26.79 -45.88,-58.17 -60.28,-94.14 -14.38,-35.98 -21.58,-74.8 -21.58,-116.47 0,-41.68 7.08,-79.87 21.21,-114.61 14.14,-34.73 33.99,-64.75 59.54,-90.05 25.56,-25.31 56.31,-44.9 92.28,-58.79 35.98,-13.89 75.79,-20.84 119.46,-20.84l17.12 0c44.16,0 84.22,7.08 120.19,21.21 35.97,14.14 66.73,33.87 92.28,59.17 25.55,25.31 45.27,55.32 59.17,90.05 13.89,34.73 20.84,72.69 20.84,113.86 0,41.68 -7.2,80.5 -21.58,116.47 -14.38,35.97 -34.6,67.35 -60.65,94.14 -26.05,26.79 -56.94,47.75 -92.66,62.89 -35.72,15.13 -74.92,22.7 -117.58,22.7l-17.12 0zm0 -479.28c-27.79,0 -53.34,4.72 -76.66,14.14 -23.32,9.43 -43.54,22.58 -60.65,39.44 -17.12,16.87 -30.52,36.96 -40.18,60.28 -9.68,23.32 -14.52,49.12 -14.52,77.41 0,27.28 4.71,52.34 14.14,75.17 9.43,22.82 22.57,42.54 39.44,59.17 16.86,16.61 37.08,29.51 60.65,38.7 23.57,9.17 49.49,13.76 77.78,13.76l17.12 0c28.77,0 54.95,-4.71 78.51,-14.13 23.57,-9.43 43.79,-22.46 60.65,-39.08 16.87,-16.61 29.89,-36.34 39.08,-59.17 9.17,-22.82 13.76,-47.62 13.76,-74.41 0,-27.79 -4.71,-53.34 -14.13,-76.66 -9.43,-23.32 -22.71,-43.54 -39.82,-60.65 -17.12,-17.12 -37.45,-30.39 -61.02,-39.81 -23.57,-9.43 -49.24,-14.14 -77.02,-14.14l-17.12 0zm369.13 479.28l0 -101.22 203.16 0c31.26,0 57.06,-7.44 77.41,-22.33 20.34,-14.89 30.51,-34.23 30.51,-58.05 0,-11.91 -2.72,-22.82 -8.18,-32.74 -5.46,-9.92 -12.9,-18.48 -22.33,-25.68 -9.43,-7.19 -20.84,-12.77 -34.24,-16.74 -13.39,-3.97 -27.78,-5.95 -43.16,-5.95l-46.14 0c-23.82,0 -45.89,-3.84 -66.23,-11.53 -20.35,-7.69 -37.95,-18.6 -52.84,-32.74 -14.89,-14.14 -26.54,-30.76 -34.98,-49.86 -8.43,-19.1 -12.65,-40.31 -12.65,-63.63 0,-22.83 4.34,-43.91 13.02,-63.26 8.68,-19.34 20.97,-36.22 36.84,-50.6 15.88,-14.38 34.98,-25.68 57.31,-33.86 22.33,-8.19 46.89,-12.29 73.68,-12.29l192.74 0 0 101.22 -197.95 0c-21.34,0 -38.21,5.83 -50.61,17.49 -12.4,11.66 -18.6,25.68 -18.6,42.05 0,17.86 6.32,32.74 18.97,44.65 12.66,11.92 29.4,17.87 50.24,17.87l57.3 0c25.8,0 49.62,4.34 71.44,13.02 21.83,8.68 40.69,20.96 56.57,36.84 15.88,15.88 28.28,34.73 37.21,56.56 8.92,21.83 13.39,45.65 13.39,71.45 0,26.29 -4.71,50.35 -14.13,72.19 -9.43,21.83 -22.95,40.69 -40.56,56.57 -17.61,15.87 -38.58,28.28 -62.89,37.21 -24.3,8.92 -51.35,13.39 -81.12,13.39l-203.16 0zm637.79 0l0 -580.49 166.71 0c43.16,0 82.6,6.95 118.33,20.84 35.72,13.89 66.48,33.37 92.28,58.42 25.8,25.06 45.89,54.95 60.28,89.68 14.38,34.72 21.58,73.18 21.58,115.35 0,41.68 -7.32,80.63 -21.95,116.85 -14.64,36.22 -34.85,67.6 -60.65,94.14 -25.8,26.54 -56.69,47.38 -92.65,62.52 -35.98,15.13 -75.05,22.7 -117.22,22.7l-166.71 0zm101.22 -479.28l0 378.06 65.49 0c28.78,0 54.82,-4.71 78.14,-14.13 23.32,-9.43 43.42,-22.46 60.29,-39.08 16.86,-16.61 29.88,-36.34 39.07,-59.17 9.17,-22.82 13.76,-47.62 13.76,-74.41 0,-27.29 -4.71,-52.72 -14.13,-76.29 -9.43,-23.56 -22.58,-43.78 -39.45,-60.65 -16.86,-16.86 -37.08,-30.13 -60.65,-39.81 -23.57,-9.68 -49.24,-14.52 -77.02,-14.52l-65.49 0zm698.81 479.28l-288.01 0 0 -580.49 283.55 0 0 101.22 -182.33 0 0 134.7 157.03 0 0 100.47 -157.03 0 0 142.88 186.79 0 0 101.22zm226.99 0l0 -580.49 101.22 0 0 580.49 -101.22 0zm264.94 -402.62l0 402.62 -97.49 0 0 -529.88c0,-15.38 4.22,-27.67 12.65,-36.84 8.44,-9.17 20.59,-13.77 36.47,-13.77 9.93,0 19.22,2.11 27.91,6.33 8.68,4.22 17.49,12.03 26.42,23.44l283.55 372.85 0 -402.62 96.75 0 0 530.63c0,37.21 -12.66,55.81 -37.95,55.81 -12.41,0 -23.32,-2.85 -32.74,-8.55 -9.44,-5.71 -19.85,-14.52 -31.26,-26.42l-284.29 -373.6zm856.59 58.05l0 344.57 -125.77 0c-43.16,0 -82.6,-7.57 -118.33,-22.7 -35.73,-15.14 -66.48,-35.98 -92.28,-62.52 -25.8,-26.54 -45.89,-57.92 -60.28,-94.14 -14.39,-36.22 -21.58,-75.17 -21.58,-116.85 0,-42.17 7.07,-80.63 21.21,-115.35 14.13,-34.73 33.98,-64.63 59.54,-89.68 25.55,-25.06 56.3,-44.53 92.28,-58.42 35.97,-13.89 75.78,-20.84 119.45,-20.84l84.84 0 0 101.22 -84.84 0c-27.79,0 -53.33,4.84 -76.65,14.52 -23.32,9.68 -43.54,22.95 -60.66,39.81 -17.12,16.87 -30.51,37.09 -40.18,60.65 -9.68,23.57 -14.52,49 -14.52,76.29 0,27.28 4.72,52.34 14.14,75.17 9.43,22.82 22.58,42.54 39.44,59.17 16.87,16.61 37.09,29.51 60.65,38.7 23.57,9.17 49.5,13.76 77.78,13.76l30.51 0 0 -142.88 -135.45 0 0 -100.47 230.71 0zm349.04 344.57l-288.01 0 0 -580.49 283.55 0 0 101.22 -182.33 0 0 134.7 157.03 0 0 100.47 -157.03 0 0 142.88 186.79 0 0 101.22zm145.12 -402.62l0 402.62 -97.49 0 0 -529.88c0,-15.38 4.22,-27.67 12.65,-36.84 8.44,-9.17 20.59,-13.77 36.47,-13.77 9.93,0 19.22,2.11 27.91,6.33 8.68,4.22 17.49,12.03 26.42,23.44l283.55 372.85 0 -402.62 96.75 0 0 530.63c0,37.21 -12.66,55.81 -37.95,55.81 -12.41,0 -23.32,-2.85 -32.74,-8.55 -9.44,-5.71 -19.85,-14.52 -31.26,-26.42l-284.29 -373.6zm451 402.62l0 -580.49 101.22 0 0 580.49 -101.22 0zm455.46 0l-288.01 0 0 -580.49 283.55 0 0 101.22 -182.33 0 0 134.7 157.03 0 0 100.47 -157.03 0 0 142.88 186.79 0 0 101.22zm480.02 0l-141.4 0 -154.06 -162.98c-8.92,-9.43 -15.75,-18.36 -20.46,-26.79 -4.72,-8.43 -7.08,-16.87 -7.08,-25.31 0,-31.75 20.1,-49.12 60.28,-52.1 54.09,-3.97 94.15,-14.76 120.2,-32.37 26.05,-17.61 39.07,-44.28 39.07,-79.99 0,-33.25 -10.05,-58.17 -30.14,-74.8 -20.09,-16.62 -48.75,-24.94 -85.96,-24.94l-111.63 0 0 479.28 -101.22 0 0 -580.49 215.08 0c30.27,0 58.79,4.35 85.59,13.03 26.79,8.68 49.98,21.33 69.59,37.95 19.59,16.62 35.09,37.33 46.51,62.14 11.41,24.81 17.12,53.34 17.12,85.59 0,19.35 -2.97,39.2 -8.92,59.54 -5.95,20.35 -15.88,39.45 -29.77,57.31 -13.89,17.86 -32.24,33.61 -55.07,47.26 -22.83,13.64 -51.36,23.19 -85.59,28.65l177.87 189.03zm55.82 0l0 -580.49 101.22 0 0 580.49 -101.22 0zm46.89 -609.51l-31.26 0 44.65 -78.15 55.07 0 -68.46 78.15zm448.02 55.07c6.95,-10.91 15.5,-18.73 25.67,-23.44 10.18,-4.72 20.97,-7.07 32.37,-7.07 12.9,0 23.2,4.59 30.89,13.76 7.69,9.17 11.53,21.46 11.53,36.84l0 534.35 -100.46 0 0 -392.2 -248.57 392.2 -120.57 0 369.14 -554.44zm794.81 -26.05l0 152.57c0,76.4 -15.75,136.56 -47.25,180.47 -31.51,43.91 -76.53,70.08 -135.07,78.52l0 168.93 -101.22 0 0 -169.68c-58.54,-8.44 -103.2,-34.49 -133.96,-78.15 -30.76,-43.66 -46.15,-103.7 -46.15,-180.1l0 -152.57 101.22 0 0 152.57c0,30.27 2.24,55.56 6.7,75.91 4.47,20.34 11.54,36.84 21.21,49.49 9.68,12.65 22.08,21.7 37.21,27.16 15.14,5.46 33.62,8.18 55.45,8.18l19.34 0c21.33,0 39.69,-2.72 55.07,-8.18 15.39,-5.46 28.04,-14.52 37.95,-27.16 9.93,-12.65 17.13,-29.27 21.58,-49.86 4.47,-20.59 6.71,-45.77 6.71,-75.54l0 -152.57 101.21 0zm234.43 580.49l0 -101.22 203.16 0c31.26,0 57.06,-7.44 77.41,-22.33 20.34,-14.89 30.51,-34.23 30.51,-58.05 0,-11.91 -2.72,-22.82 -8.18,-32.74 -5.46,-9.92 -12.9,-18.48 -22.33,-25.68 -9.43,-7.19 -20.84,-12.77 -34.24,-16.74 -13.39,-3.97 -27.78,-5.95 -43.16,-5.95l-46.14 0c-23.82,0 -45.89,-3.84 -66.23,-11.53 -20.35,-7.69 -37.95,-18.6 -52.84,-32.74 -14.89,-14.14 -26.54,-30.76 -34.98,-49.86 -8.43,-19.1 -12.65,-40.31 -12.65,-63.63 0,-22.83 4.34,-43.91 13.02,-63.26 8.68,-19.34 20.97,-36.22 36.84,-50.6 15.88,-14.38 34.98,-25.68 57.31,-33.86 22.33,-8.19 46.89,-12.29 73.68,-12.29l192.74 0 0 101.22 -197.95 0c-21.34,0 -38.21,5.83 -50.61,17.49 -12.4,11.66 -18.6,25.68 -18.6,42.05 0,17.86 6.32,32.74 18.97,44.65 12.66,11.92 29.4,17.87 50.24,17.87l57.3 0c25.8,0 49.62,4.34 71.44,13.02 21.83,8.68 40.69,20.96 56.57,36.84 15.88,15.88 28.28,34.73 37.21,56.56 8.92,21.83 13.39,45.65 13.39,71.45 0,26.29 -4.71,50.35 -14.13,72.19 -9.43,21.83 -22.95,40.69 -40.56,56.57 -17.61,15.87 -38.58,28.28 -62.89,37.21 -24.3,8.92 -51.35,13.39 -81.12,13.39l-203.16 0zm746.44 0l-288.01 0 0 -580.49 283.55 0 0 101.22 -182.33 0 0 134.7 157.03 0 0 100.47 -157.03 0 0 142.88 186.79 0 0 101.22zm453.23 -344.57l0 344.57 -125.77 0c-43.16,0 -82.6,-7.57 -118.33,-22.7 -35.73,-15.14 -66.48,-35.98 -92.28,-62.52 -25.8,-26.54 -45.89,-57.92 -60.28,-94.14 -14.39,-36.22 -21.58,-75.17 -21.58,-116.85 0,-42.17 7.07,-80.63 21.21,-115.35 14.13,-34.73 33.98,-64.63 59.54,-89.68 25.55,-25.06 56.3,-44.53 92.28,-58.42 35.97,-13.89 75.78,-20.84 119.45,-20.84l84.84 0 0 101.22 -84.84 0c-27.79,0 -53.33,4.84 -76.65,14.52 -23.32,9.68 -43.54,22.95 -60.66,39.81 -17.12,16.87 -30.51,37.09 -40.18,60.65 -9.68,23.57 -14.52,49 -14.52,76.29 0,27.28 4.72,52.34 14.14,75.17 9.43,22.82 22.58,42.54 39.44,59.17 16.87,16.61 37.09,29.51 60.65,38.7 23.57,9.17 49.5,13.76 77.78,13.76l30.51 0 0 -142.88 -135.45 0 0 -100.47 230.71 0zm520.96 -235.92l0 318.52c0,84.84 -19.34,149.72 -58.05,194.62 -38.7,44.9 -93.52,67.35 -164.47,67.35l-19.35 0c-71.44,0 -126.26,-22.33 -164.47,-66.98 -38.21,-44.66 -57.31,-109.65 -57.31,-194.99l0 -318.52 101.22 0 0 318.52c0,30.77 2.23,56.31 6.7,76.66 4.47,20.34 11.53,36.83 21.21,49.49 9.68,12.65 22.08,21.58 37.21,26.79 15.14,5.21 33.62,7.81 55.44,7.81l19.35 0c21.33,0 39.69,-2.73 55.07,-8.18 15.38,-5.46 28.04,-14.39 37.95,-26.79 9.93,-12.41 17.12,-28.9 21.58,-49.49 4.47,-20.6 6.7,-46.03 6.7,-76.29l0 -318.52 101.22 0zm493.42 580.49l-141.4 0 -154.06 -162.98c-8.92,-9.43 -15.75,-18.36 -20.46,-26.79 -4.72,-8.43 -7.08,-16.87 -7.08,-25.31 0,-31.75 20.1,-49.12 60.28,-52.1 54.09,-3.97 94.15,-14.76 120.2,-32.37 26.05,-17.61 39.07,-44.28 39.07,-79.99 0,-33.25 -10.05,-58.17 -30.14,-74.8 -20.09,-16.62 -48.75,-24.94 -85.96,-24.94l-111.63 0 0 479.28 -101.22 0 0 -580.49 215.08 0c30.27,0 58.79,4.35 85.59,13.03 26.79,8.68 49.98,21.33 69.59,37.95 19.59,16.62 35.09,37.33 46.51,62.14 11.41,24.81 17.12,53.34 17.12,85.59 0,19.35 -2.97,39.2 -8.92,59.54 -5.95,20.35 -15.88,39.45 -29.77,57.31 -13.89,17.86 -32.24,33.61 -55.07,47.26 -22.83,13.64 -51.36,23.19 -85.59,28.65l177.87 189.03zm55.82 0l0 -580.49 101.22 0 0 580.49 -101.22 0zm167.45 0l0 -580.49 166.71 0c43.16,0 82.6,6.95 118.33,20.84 35.72,13.89 66.48,33.37 92.28,58.42 25.8,25.06 45.89,54.95 60.28,89.68 14.38,34.72 21.58,73.18 21.58,115.35 0,41.68 -7.32,80.63 -21.95,116.85 -14.64,36.22 -34.85,67.6 -60.65,94.14 -25.8,26.54 -56.69,47.38 -92.65,62.52 -35.98,15.13 -75.05,22.7 -117.22,22.7l-166.71 0zm101.22 -479.28l0 378.06 65.49 0c28.78,0 54.82,-4.71 78.14,-14.13 23.32,-9.43 43.42,-22.46 60.29,-39.08 16.86,-16.61 29.88,-36.34 39.07,-59.17 9.17,-22.82 13.76,-47.62 13.76,-74.41 0,-27.29 -4.71,-52.72 -14.13,-76.29 -9.43,-23.56 -22.58,-43.78 -39.45,-60.65 -16.86,-16.86 -37.08,-30.13 -60.65,-39.81 -23.57,-9.68 -49.24,-14.52 -77.02,-14.52l-65.49 0zm669.79 -75.17c6.95,-10.91 15.5,-18.73 25.67,-23.44 10.18,-4.72 20.97,-7.07 32.37,-7.07 12.9,0 23.2,4.59 30.89,13.76 7.69,9.17 11.53,21.46 11.53,36.84l0 534.35 -100.46 0 0 -392.2 -248.57 392.2 -120.57 0 369.14 -554.44zm165.21 554.44l0 -580.49 166.71 0c43.16,0 82.6,6.95 118.33,20.84 35.72,13.89 66.48,33.37 92.28,58.42 25.8,25.06 45.89,54.95 60.28,89.68 14.38,34.72 21.58,73.18 21.58,115.35 0,41.68 -7.32,80.63 -21.95,116.85 -14.64,36.22 -34.85,67.6 -60.65,94.14 -25.8,26.54 -56.69,47.38 -92.65,62.52 -35.98,15.13 -75.05,22.7 -117.22,22.7l-166.71 0zm101.22 -479.28l0 378.06 65.49 0c28.78,0 54.82,-4.71 78.14,-14.13 23.32,-9.43 43.42,-22.46 60.29,-39.08 16.86,-16.61 29.88,-36.34 39.07,-59.17 9.17,-22.82 13.76,-47.62 13.76,-74.41 0,-27.29 -4.71,-52.72 -14.13,-76.29 -9.43,-23.56 -22.58,-43.78 -39.45,-60.65 -16.86,-16.86 -37.08,-30.13 -60.65,-39.81 -23.57,-9.68 -49.24,-14.52 -77.02,-14.52l-65.49 0zm878.17 479.28l-288.01 0 0 -580.49 283.55 0 0 101.22 -182.33 0 0 134.7 157.03 0 0 100.47 -157.03 0 0 142.88 186.79 0 0 101.22zm42.42 0l0 -580.49 100.47 0 0 479.28 157.77 0 0 101.22 -258.24 0zm587.19 0l-288.01 0 0 -580.49 283.55 0 0 101.22 -182.33 0 0 134.7 157.03 0 0 100.47 -157.03 0 0 142.88 186.79 0 0 101.22zm326.72 0c-43.16,0 -82.74,-7.57 -118.7,-22.7 -35.98,-15.14 -66.73,-35.98 -92.28,-62.52 -25.56,-26.54 -45.52,-57.92 -59.92,-94.14 -14.38,-36.22 -21.58,-75.17 -21.58,-116.85 0,-42.17 7.08,-80.63 21.21,-115.35 14.14,-34.73 33.99,-64.63 59.54,-89.68 25.56,-25.06 56.31,-44.53 92.29,-58.42 35.97,-13.89 75.78,-20.84 119.45,-20.84l84.83 0 0 101.22 -84.83 0c-27.79,0 -53.46,4.84 -77.03,14.52 -23.56,9.68 -43.91,22.95 -61.02,39.81 -17.12,16.87 -30.52,37.09 -40.18,60.65 -9.68,23.57 -14.52,49 -14.52,76.29 0,27.28 4.71,52.34 14.14,75.17 9.43,22.82 22.57,42.54 39.44,59.17 16.86,16.61 37.21,29.51 61.02,38.7 23.82,9.17 49.86,13.76 78.15,13.76l84.83 0 0 101.22 -84.83 0zm353.5 -479.28l0 479.28 -101.21 0 0 -479.28 -148.1 0 0 -101.22 397.41 0 0 101.22 -148.1 0zm618.45 479.28l-141.4 0 -154.06 -162.98c-8.92,-9.43 -15.75,-18.36 -20.46,-26.79 -4.72,-8.43 -7.08,-16.87 -7.08,-25.31 0,-31.75 20.1,-49.12 60.28,-52.1 54.09,-3.97 94.15,-14.76 120.2,-32.37 26.05,-17.61 39.07,-44.28 39.07,-79.99 0,-33.25 -10.05,-58.17 -30.14,-74.8 -20.09,-16.62 -48.75,-24.94 -85.96,-24.94l-111.63 0 0 479.28 -101.22 0 0 -580.49 215.08 0c30.27,0 58.79,4.35 85.59,13.03 26.79,8.68 49.98,21.33 69.59,37.95 19.59,16.62 35.09,37.33 46.51,62.14 11.41,24.81 17.12,53.34 17.12,85.59 0,19.35 -2.97,39.2 -8.92,59.54 -5.95,20.35 -15.88,39.45 -29.77,57.31 -13.89,17.86 -32.24,33.61 -55.07,47.26 -22.83,13.64 -51.36,23.19 -85.59,28.65l177.87 189.03zm316.31 0c-42.67,0 -81.99,-7.57 -117.96,-22.7 -35.98,-15.14 -66.85,-36.1 -92.66,-62.89 -25.8,-26.79 -45.88,-58.17 -60.28,-94.14 -14.38,-35.98 -21.58,-74.8 -21.58,-116.47 0,-41.68 7.08,-79.87 21.21,-114.61 14.14,-34.73 33.99,-64.75 59.54,-90.05 25.56,-25.31 56.31,-44.9 92.28,-58.79 35.98,-13.89 75.79,-20.84 119.46,-20.84l17.12 0c44.16,0 84.22,7.08 120.19,21.21 35.97,14.14 66.73,33.87 92.28,59.17 25.55,25.31 45.27,55.32 59.17,90.05 13.89,34.73 20.84,72.69 20.84,113.86 0,41.68 -7.2,80.5 -21.58,116.47 -14.38,35.97 -34.6,67.35 -60.65,94.14 -26.05,26.79 -56.94,47.75 -92.66,62.89 -35.72,15.13 -74.92,22.7 -117.58,22.7l-17.12 0zm0 -479.28c-27.79,0 -53.34,4.72 -76.66,14.14 -23.32,9.43 -43.54,22.58 -60.65,39.44 -17.12,16.87 -30.52,36.96 -40.18,60.28 -9.68,23.32 -14.52,49.12 -14.52,77.41 0,27.28 4.71,52.34 14.14,75.17 9.43,22.82 22.57,42.54 39.44,59.17 16.86,16.61 37.08,29.51 60.65,38.7 23.57,9.17 49.49,13.76 77.78,13.76l17.12 0c28.77,0 54.95,-4.71 78.51,-14.13 23.57,-9.43 43.79,-22.46 60.65,-39.08 16.87,-16.61 29.89,-36.34 39.08,-59.17 9.17,-22.82 13.76,-47.62 13.76,-74.41 0,-27.79 -4.71,-53.34 -14.13,-76.66 -9.43,-23.32 -22.71,-43.54 -39.82,-60.65 -17.12,-17.12 -37.45,-30.39 -61.02,-39.81 -23.57,-9.43 -49.24,-14.14 -77.02,-14.14l-17.12 0zm-10.42 -130.24l-31.26 0 44.65 -78.15 55.07 0 -68.46 78.15zm472.57 206.89l0 402.62 -97.49 0 0 -529.88c0,-15.38 4.22,-27.67 12.65,-36.84 8.44,-9.17 20.59,-13.77 36.47,-13.77 9.93,0 19.22,2.11 27.91,6.33 8.68,4.22 17.49,12.03 26.42,23.44l283.55 372.85 0 -402.62 96.75 0 0 530.63c0,37.21 -12.66,55.81 -37.95,55.81 -12.41,0 -23.32,-2.85 -32.74,-8.55 -9.44,-5.71 -19.85,-14.52 -31.26,-26.42l-284.29 -373.6zm451 402.62l0 -580.49 101.22 0 0 580.49 -101.22 0zm446.53 0c-43.16,0 -82.74,-7.57 -118.7,-22.7 -35.98,-15.14 -66.73,-35.98 -92.28,-62.52 -25.56,-26.54 -45.52,-57.92 -59.92,-94.14 -14.38,-36.22 -21.58,-75.17 -21.58,-116.85 0,-42.17 7.08,-80.63 21.21,-115.35 14.14,-34.73 33.99,-64.63 59.54,-89.68 25.56,-25.06 56.31,-44.53 92.29,-58.42 35.97,-13.89 75.78,-20.84 119.45,-20.84l84.83 0 0 101.22 -84.83 0c-27.79,0 -53.46,4.84 -77.03,14.52 -23.56,9.68 -43.91,22.95 -61.02,39.81 -17.12,16.87 -30.52,37.09 -40.18,60.65 -9.68,23.57 -14.52,49 -14.52,76.29 0,27.28 4.71,52.34 14.14,75.17 9.43,22.82 22.57,42.54 39.44,59.17 16.86,16.61 37.21,29.51 61.02,38.7 23.82,9.17 49.86,13.76 78.15,13.76l84.83 0 0 101.22 -84.83 0zm456.95 -554.44c6.95,-10.91 15.5,-18.73 25.67,-23.44 10.18,-4.72 20.97,-7.07 32.37,-7.07 12.9,0 23.2,4.59 30.89,13.76 7.69,9.17 11.53,21.46 11.53,36.84l0 534.35 -100.46 0 0 -392.2 -248.57 392.2 -120.57 0 369.14 -554.44z"/>
   <g>
    <polygon class="fil2" points="2433.85,310.33 2177.55,1882 2172.59,1905.36 2164.11,1928.06 2152.16,1949.84 2136.73,1970.59 2117.86,1990.08 2095.54,2008.14 2069.79,2024.64 2040.7,2039.36 1007.19,2500.93 983.94,2511.99 962,2523.78 941.35,2536.27 921.93,2549.43 903.86,2563.2 887.1,2577.59 871.62,2592.53 857.43,2608.04 844.57,2624.02 833.06,2640.49 822.85,2657.34 814.03,2674.62 806.49,2692.26 800.3,2710.22 795.48,2728.45 792.05,2746.97 1032.9,1166.87 1036.36,1148.46 1041.16,1130.3 1047.37,1112.45 1054.95,1094.94 1063.87,1077.77 1074.16,1061 1085.8,1044.62 1098.77,1028.79 1113.06,1013.39 1128.72,998.56 1145.68,984.28 1163.97,970.62 1183.55,957.6 1204.47,945.22 1226.66,933.56 1250.18,922.66 2295.71,466.49 2325.16,451.97 2351.14,435.66 2373.69,417.72 2392.74,398.4 2408.35,377.79 2420.36,356.15 2428.9,333.6 "/>
    <polygon class="fil3" points="1094.47,2970.75 1070.37,2947.49 1050.02,2923.49 1033.47,2898.97 1020.58,2874.07 1011.42,2849.04 1005.93,2824 1004.07,2799.15 1005.79,2774.69 1249.5,1195.17 1247.84,1219.51 1249.79,1244.26 1255.39,1269.21 1264.78,1294.18 1277.86,1319 1294.74,1343.45 1315.39,1367.39 1339.88,1390.62 1367.59,1412.5 1397.63,1432.34 1429.75,1450.18 1463.63,1465.93 1499.01,1479.6 1535.57,1491 1573.06,1500.26 1611.11,1507.24 1649.52,1511.91 1687.99,1514.22 1726.18,1514.16 1763.82,1511.64 1800.63,1506.66 1836.31,1499.16 1870.59,1489.08 1903.14,1476.43 2949.06,1013.97 2973.23,1003.92 2998.13,994.93 3023.67,986.87 3049.83,979.78 3076.54,973.71 3103.73,968.62 3131.41,964.42 3159.45,961.18 3187.8,958.87 3216.41,957.52 3245.29,957.06 3274.34,957.53 3303.5,958.88 3332.72,961.11 3361.92,964.28 3390.81,969.95 3391.11,968.26 3420.21,973.14 3449.09,978.86 3477.77,985.46 3506.18,992.87 3534.25,1001.15 3561.99,1010.23 3589.24,1020.11 3616.04,1030.84 3642.25,1042.33 3667.87,1054.64 3692.86,1067.72 3717.16,1081.58 3740.64,1096.22 3763.34,1111.6 3785.19,1127.73 3806.08,1144.66 3825.79,1162.1 3844.03,1179.86 3860.88,1197.88 3876.27,1216.19 3890.27,1234.71 3902.83,1253.41 3914.01,1272.24 3923.72,1291.18 3932.08,1310.24 3939.02,1329.35 3944.56,1348.42 3948.66,1367.49 3951.44,1386.51 3952.8,1405.44 3952.72,1424.19 3951.33,1442.84 3672.35,3014.86 3673.8,2996.12 3673.9,2977.27 3672.63,2958.3 3669.96,2939.18 3665.98,2920.04 3660.55,2900.88 3653.76,2881.73 3645.58,2862.61 3636.05,2843.61 3625.09,2824.73 3612.73,2805.95 3598.98,2787.41 3583.83,2769.09 3567.23,2751.03 3549.26,2733.24 3529.86,2715.78 3509.31,2698.89 3487.81,2682.73 3465.46,2667.36 3442.3,2652.69 3418.36,2638.88 3393.72,2625.79 3368.48,2613.52 3342.59,2602.06 3316.19,2591.37 3289.3,2581.54 3261.97,2572.49 3234.24,2564.3 3206.24,2556.94 3177.92,2550.41 3149.42,2544.74 3124.69,2540.61 3124.08,2542.34 3091.95,2535.98 3063.09,2532.92 3034.28,2530.79 3005.47,2529.47 2976.82,2529.14 2948.31,2529.68 2920.02,2531.15 2892.02,2533.55 2864.32,2536.89 2837.01,2541.19 2810.12,2546.43 2783.72,2552.61 2757.9,2559.79 2732.66,2567.94 2708.06,2577.1 2684.15,2587.23 1650.26,3055.12 1618.1,3067.95 1584.23,3078.16 1548.97,3085.8 1512.62,3090.95 1475.45,3093.57 1437.73,3093.76 1399.8,3091.56 1361.88,3086.97 1324.34,3080.1 1287.35,3070.94 1251.29,3059.55 1216.41,3045.99 1183,3030.27 1151.36,3012.47 1121.76,2992.61 "/>
    <polygon class="fil4" points="3948.49,1461.25 3669.5,3033.37 3672.35,3014.86 3951.33,1442.84 "/>
    <polygon class="fil5" points="314.95,3323.39 292.38,3302.93 270.72,3282.3 249.87,3261.5 229.89,3240.51 210.72,3219.37 192.46,3198.09 175,3176.68 158.4,3155.14 142.63,3133.46 127.74,3111.69 113.63,3089.86 100.36,3067.93 87.92,3045.92 76.34,3023.83 65.58,3001.72 55.6,2979.59 46.51,2957.36 38.25,2935.16 30.75,2912.91 24.11,2890.72 18.24,2868.51 13.22,2846.33 8.96,2824.14 5.58,2802.02 2.99,2779.97 1.18,2757.96 0.17,2736.02 -0,2714.17 0.6,2692.4 2,2670.74 4.17,2649.19 7.17,2627.76 237.47,1045.68 234.51,1067.01 232.35,1088.45 230.97,1110.01 230.46,1131.67 230.69,1153.44 231.76,1175.26 233.65,1197.19 236.36,1219.15 239.83,1241.17 244.16,1263.26 249.31,1285.38 255.3,1307.51 262.13,1329.68 269.77,1351.82 278.22,1373.95 287.51,1396.07 297.65,1418.19 308.61,1440.25 320.41,1462.24 333.02,1484.22 346.52,1506.08 360.87,1527.9 376.04,1549.59 392.1,1571.21 408.95,1592.71 426.68,1614.09 445.29,1635.31 464.72,1656.45 485.02,1677.41 506.21,1698.21 528.2,1718.81 551.1,1739.27 574.72,1759.39 598.94,1779.08 623.7,1798.33 649.01,1817.16 674.89,1835.53 701.23,1853.49 728.13,1870.99 755.49,1888.02 783.32,1904.61 811.59,1920.79 840.28,1936.46 869.42,1951.71 898.98,1966.43 928.9,1980.75 959.2,1994.57 989.84,2007.95 1020.81,2020.83 1052.14,2033.21 1083.76,2045.14 1115.62,2056.57 1147.78,2067.52 1180.21,2078.01 1212.89,2087.99 1245.77,2097.5 1278.83,2106.48 1312.12,2114.97 1345.55,2122.97 1379.18,2130.42 1412.89,2137.43 1446.75,2143.87 1480.72,2149.84 1514.75,2155.28 1548.89,2160.23 1583.04,2164.62 1617.25,2168.46 1651.51,2171.85 1685.71,2174.68 1719.98,2177.01 1754.2,2178.78 1788.39,2180.02 1822.46,2180.68 1856.5,2180.9 1890.45,2180.53 1924.26,2179.59 1958.02,2178.12 1991.55,2176.13 2024.95,2173.54 2058.18,2170.43 2091.22,2166.78 2124.08,2162.54 2156.64,2157.76 2189.02,2152.4 2221.14,2146.53 2252.94,2140.06 2284.48,2133 2315.71,2125.39 2346.6,2117.2 2377.17,2108.47 2407.38,2099.14 2437.22,2089.24 2466.64,2078.76 2495.68,2067.69 2524.28,2056.04 2552.45,2043.81 3598.83,1574.75 3628.25,1559.77 3654.22,1543.03 3676.66,1524.64 3695.57,1504.8 3710.94,1483.69 3722.77,1461.54 3730.99,1438.43 3735.6,1414.66 3459.46,2987.23 3454.81,3011.15 3446.62,3034.35 3434.89,3056.69 3419.67,3077.92 3400.94,3097.88 3378.72,3116.45 3353.04,3133.37 3323.93,3148.46 2289.58,3622.87 2261.73,3635.25 2233.45,3647.03 2204.75,3658.22 2175.69,3668.86 2146.17,3678.9 2116.33,3688.37 2086.17,3697.28 2055.63,3705.55 2024.78,3713.3 1993.65,3720.47 1962.22,3727.1 1930.51,3733.13 1898.55,3738.57 1866.34,3743.48 1833.93,3747.8 1801.32,3751.62 1768.49,3754.83 1735.53,3757.51 1702.4,3759.63 1669.13,3761.23 1635.72,3762.24 1602.22,3762.72 1568.64,3762.69 1534.96,3762.07 1501.24,3760.93 1467.46,3759.28 1433.65,3757.05 1399.89,3754.32 1366.11,3751.06 1332.33,3747.26 1298.61,3742.97 1264.96,3738.13 1231.37,3732.75 1197.88,3726.86 1164.5,3720.49 1131.2,3713.58 1098.07,3706.19 1065.06,3698.28 1032.24,3689.87 999.63,3680.93 967.21,3671.47 934.96,3661.59 902.99,3651.18 871.29,3640.26 839.85,3628.89 808.66,3617.01 777.8,3604.65 747.25,3591.82 717.03,3578.49 687.2,3564.7 657.69,3550.43 628.6,3535.7 599.85,3520.5 571.54,3504.85 543.68,3488.71 516.26,3472.14 489.29,3455.13 462.8,3437.59 436.82,3419.68 411.36,3401.33 386.42,3382.48 362.02,3363.21 338.21,3343.51 "/>
    <polygon class="fil6" points="4737.31,1605.94 4447.83,3176.21 4443.58,3197.31 4438.55,3218.28 4432.71,3239.1 4426.11,3259.77 4418.68,3280.25 4410.52,3300.59 4401.57,3320.73 4391.8,3340.64 4381.28,3360.36 4369.96,3379.88 4357.87,3399.15 4344.95,3418.18 4331.29,3436.94 4316.88,3455.43 4301.63,3473.69 4285.62,3491.64 4268.88,3509.3 4251.31,3526.66 4232.98,3543.7 4213.84,3560.4 4193.95,3576.77 4173.3,3592.8 4151.87,3608.47 4129.64,3623.78 4106.66,3638.73 4082.91,3653.25 4058.39,3667.4 4033.09,3681.11 4006.98,3694.41 3980.17,3707.28 2945.53,4188.24 2913.28,4201.42 2879.3,4211.94 2843.9,4219.84 2807.32,4225.17 2769.95,4227.97 2731.97,4228.24 2693.7,4226.06 2655.45,4221.49 2617.5,4214.55 2580.11,4205.25 2543.63,4193.68 2508.27,4179.88 2474.41,4163.87 2442.26,4145.76 2412.16,4125.47 2384.35,4103.19 2359.7,4079.45 2338.86,4054.95 2321.77,4029.93 2308.48,4004.48 2298.87,3978.9 2292.98,3953.28 2290.75,3927.89 2292.15,3902.87 2555.9,2322.63 2554.55,2347.56 2556.9,2372.86 2562.95,2398.39 2572.75,2423.89 2586.31,2449.24 2603.7,2474.23 2624.86,2498.7 2649.87,2522.43 2678.13,2544.74 2708.71,2565 2741.33,2583.15 2775.72,2599.19 2811.54,2613.06 2848.57,2624.67 2886.46,2634.06 2924.92,2641.12 2963.69,2645.82 3002.45,2648.06 3040.93,2647.91 3078.84,2645.26 3115.85,2640.09 3151.69,2632.35 3186.06,2621.93 3218.69,2608.92 4265.32,2133.25 4292.47,2120.51 4318.85,2107.37 4344.43,2093.77 4369.22,2079.79 4393.27,2065.36 4416.52,2050.59 4438.93,2035.42 4460.61,2019.9 4481.49,2003.99 4501.56,1987.76 4520.89,1971.16 4539.41,1954.25 4557.13,1937.03 4574.07,1919.52 4590.23,1901.68 4605.6,1883.59 4620.16,1865.16 4633.93,1846.56 4646.91,1827.65 4659.13,1808.48 4670.51,1789.12 4681.1,1769.52 4690.94,1749.7 4699.96,1729.68 4708.12,1709.48 4715.57,1689.09 4722.22,1668.54 4728.03,1647.83 4733.05,1626.94 "/>
    <path class="fil7" d="M1391.3 1035.81l1073.25 -469.18c692.48,-275.3 1878.93,-66.71 2222.2,670.23 170.8,397.17 -59.57,726.79 -421.44,896.39l-1079.25 488.68c-151.59,45.8 -302.24,27.72 -444.74,-38.79 -186.37,-103.77 -276.22,-306.36 -44.97,-423.9l1069.51 -481.48c375.47,-203.73 111.26,-542.22 -176.62,-657.67 -204.89,-74.3 -435.79,-91.05 -640.18,-6.13l-1078.47 475.1c-150.36,44.17 -299.6,26.82 -440.84,-38.9 -185.8,-103.09 -267.38,-301.02 -38.45,-414.37z"/>
    <path class="fil8" d="M3598.83 1574.75l-1074.55 481.28c-690.44,281.56 -1866.36,88.06 -2226.63,-637.85 -191.14,-416.32 63.94,-761.8 445.8,-931.81l1077.18 -463.28c147.83,-42.26 294.29,-24.92 433.18,38.9 181.46,99.39 268.17,292.89 41.9,404.49l-1069.05 467.07c-378.98,199.27 -135.81,540.12 160.26,659.58 207.55,75.95 441.46,91.62 648.46,5.5l1078.19 -476.43c149.11,-43.76 296.75,-25.77 436.94,38.81 182.2,100.15 276.55,297.71 48.32,413.73z"/>
   </g>
  </g>
 </g>
</svg>
