<svg id="Capa_1" data-name="Capa 1" xmlns="http://www.w3.org/2000/svg" xmlns:xlink="http://www.w3.org/1999/xlink" viewBox="0 0 745.89 261.64"><defs><style>.cls-1,.cls-2{fill:#201230;}.cls-1,.cls-3,.cls-4,.cls-5,.cls-6,.cls-7{fill-rule:evenodd;}.cls-3{fill:#880b73;}.cls-4{fill:#edc83a;}.cls-5{fill:url(#Degradado_sin_nombre_13);}.cls-6{fill:#669ec5;}.cls-7{fill:#c44e32;}</style><radialGradient id="Degradado_sin_nombre_13" cx="251.47" cy="278.41" r="86.01" gradientUnits="userSpaceOnUse"><stop offset="0" stop-color="#ebc31f"/><stop offset="0.23" stop-color="#da9b24"/><stop offset="1" stop-color="#880b73"/></radialGradient></defs><title>Logo Tecondor SVG</title><path class="cls-1" d="M851.08,288.1c2.88-.56,14.21-3.72,14.21-17.93,0-11.89-7.62-18-21-18H821.52v62h6.69v-25H844l16.17,25h7.9Zm-7.16-5.3H828.21V258.46h15.71c13,0,14.68,6.51,14.68,12.17S856.93,282.8,843.92,282.8Z" transform="translate(-122.19 -151.13)"/><path class="cls-1" d="M783.48,251.31c-19.05,0-28.72,10.68-28.72,31.77s9.67,31.78,28.72,31.78,28.81-10.69,28.81-31.78S802.62,251.31,783.48,251.31Zm0,57.23c-15.24,0-22-7.81-22-25.46s6.79-25.45,22-25.45,22.12,7.89,22.12,25.45S798.81,308.54,783.48,308.54Z" transform="translate(-122.19 -151.13)"/><path class="cls-1" d="M718.49,252.14H699.07v62h19.42c19.33,0,29.09-10.4,29.09-31S737.82,252.14,718.49,252.14ZM718,307.79H705.76V258.37H718c15.8,0,22.86,7.62,22.86,24.71S733.82,307.79,718,307.79Z" transform="translate(-122.19 -151.13)"/><polygon class="cls-1" points="520.9 110.77 520.9 162.98 514.21 162.98 514.21 101.02 521.83 101.02 558.81 153.23 558.81 101.02 565.5 101.02 565.5 162.98 557.98 162.98 520.9 110.77"/><path class="cls-1" d="M598.63,251.31c-19,0-28.72,10.68-28.72,31.77s9.67,31.78,28.72,31.78,28.81-10.69,28.81-31.78S617.77,251.31,598.63,251.31Zm0,57.23c-15.24,0-22-7.81-22-25.46s6.79-25.45,22-25.45,22.12,7.89,22.12,25.45S614,308.54,598.63,308.54Z" transform="translate(-122.19 -151.13)"/><path class="cls-1" d="M698.35,329.87h-1.77L690,346.43H692l2-5.17H701l2,5.17h1.89Zm-3.76,9.68,2.87-7.57,2.88,7.57Z" transform="translate(-122.19 -151.13)"/><polygon class="cls-1" points="559.77 192.74 554.49 178.74 552.59 178.74 558.88 195.3 560.63 195.3 566.92 178.74 565.03 178.74 559.77 192.74"/><path class="cls-1" d="M642.58,329.87,636,346.43H638l2-5.17H647l2,5.17h1.89l-6.51-16.56Zm-2,9.68,2.87-7.57,2.88,7.57Z" transform="translate(-122.19 -151.13)"/><polygon class="cls-1" points="499.89 195.3 510.24 195.3 510.24 193.61 501.66 193.61 501.66 187.88 509.21 187.88 509.21 186.14 501.66 186.14 501.66 180.43 510.24 180.43 510.24 178.74 499.89 178.74 499.89 195.3"/><path class="cls-1" d="M566.47,329.87l-6.54,16.56h1.92l2-5.17h7.08l2,5.17h1.89l-6.51-16.56Zm-2,9.68,2.87-7.57,2.88,7.57Z" transform="translate(-122.19 -151.13)"/><path class="cls-1" d="M523.19,329.65c-5,0-7.59,2.85-7.59,8.49s2.55,8.49,7.59,8.49,7.62-2.86,7.62-8.49S528.25,329.65,523.19,329.65Zm0,15.29c-4,0-5.82-2.09-5.82-6.8s1.79-6.8,5.82-6.8,5.85,2.11,5.85,6.8S527.25,344.94,523.19,344.94Z" transform="translate(-122.19 -151.13)"/><polygon class="cls-1" points="381.66 178.74 379.89 178.74 379.89 195.3 390.04 195.3 390.04 193.56 381.66 193.56 381.66 178.74"/><polygon class="cls-1" points="352.95 192.69 343.17 178.74 341.15 178.74 341.15 195.3 342.92 195.3 342.92 181.35 352.73 195.3 354.71 195.3 354.71 178.74 352.95 178.74 352.95 192.69"/><polygon class="cls-1" points="291.98 180.48 297.78 180.48 297.78 195.3 299.55 195.3 299.55 180.48 305.32 180.48 305.32 178.74 291.98 178.74 291.98 180.48"/><polygon class="cls-1" points="309.45 195.3 319.8 195.3 319.8 193.61 311.22 193.61 311.22 187.88 318.76 187.88 318.76 186.14 311.22 186.14 311.22 180.43 319.8 180.43 319.8 178.74 309.45 178.74 309.45 195.3"/><path class="cls-1" d="M445.82,338.14c0,5.63,2.55,8.49,7.59,8.49a13.62,13.62,0,0,0,5-.95V344a12.06,12.06,0,0,1-4.79,1c-4.15,0-6-2.09-6-6.8s1.87-6.8,6-6.8a12.08,12.08,0,0,1,4.79,1v-1.71a12.94,12.94,0,0,0-5-1C448.37,329.65,445.82,332.5,445.82,338.14Z" transform="translate(-122.19 -151.13)"/><path class="cls-1" d="M489.55,329.65c-5,0-7.59,2.85-7.59,8.49s2.56,8.49,7.59,8.49,7.62-2.86,7.62-8.49S494.62,329.65,489.55,329.65Zm0,15.29c-4,0-5.82-2.09-5.82-6.8s1.79-6.8,5.82-6.8,5.85,2.11,5.85,6.8S493.61,344.94,489.55,344.94Z" transform="translate(-122.19 -151.13)"/><path class="cls-1" d="M542.8,339.15h4v5.17a11.83,11.83,0,0,1-3.76.59c-4.15,0-6-2.08-6-6.77s1.87-6.78,6-6.78a12,12,0,0,1,5,1.07v-1.74a13,13,0,0,0-5.16-1c-5,0-7.6,2.85-7.6,8.49s2.56,8.49,7.6,8.49a13.08,13.08,0,0,0,5.72-1.29v-7.92H542.8Z" transform="translate(-122.19 -151.13)"/><polygon class="cls-1" points="432.03 177.33 433.21 177.33 435.25 174.47 433.43 174.47 432.03 177.33"/><rect class="cls-2" x="431.74" y="178.74" width="1.77" height="16.56"/><path class="cls-1" d="M588,338.14c0,5.63,2.55,8.49,7.59,8.49a13.62,13.62,0,0,0,5-.95V344a12.1,12.1,0,0,1-4.79,1c-4.16,0-6-2.09-6-6.8s1.86-6.8,6-6.8a12.12,12.12,0,0,1,4.79,1v-1.71a13,13,0,0,0-5-1C590.58,329.65,588,332.5,588,338.14Z" transform="translate(-122.19 -151.13)"/><path class="cls-1" d="M617,334.69c0-3.18-2-4.82-5.56-4.82h-6v16.56h1.77v-6.68h4.18l4.28,6.68h2.09l-4.5-6.95A4.59,4.59,0,0,0,617,334.69Zm-5.65,3.37h-4.16v-6.5h4.16c3.44,0,3.88,1.74,3.88,3.25S614.74,338.06,611.3,338.06Z" transform="translate(-122.19 -151.13)"/><polygon class="cls-1" points="529.28 180.48 535.08 180.48 535.08 195.3 536.85 195.3 536.85 180.48 542.63 180.48 542.63 178.74 529.28 178.74 529.28 180.48"/><rect class="cls-2" x="546.76" y="178.74" width="1.77" height="16.56"/><path class="cls-3" d="M324.15,230l-7.86,7.86H296.55V218.18l8.63-8.63a5.19,5.19,0,1,1,1.78,2.38l-7.29,7.28V234.8h15.58l6.88-6.88a5.2,5.2,0,1,1,2,2Zm-15.6-20.7a2.06,2.06,0,0,0,2.93,0,2.11,2.11,0,0,0,0-3,2.06,2.06,0,0,0-2.93,0A2.11,2.11,0,0,0,308.55,209.25ZM328.11,224a2.05,2.05,0,0,0-2.93,0,2.1,2.1,0,0,0,0,3,2.06,2.06,0,0,0,2.93,0A2.09,2.09,0,0,0,328.11,224ZM316,226.75a6.23,6.23,0,1,1-1.41-9.87L329,202.72l2,2-14.14,14.14A6.24,6.24,0,0,1,316,226.75Zm-2.67-6.21a2.47,2.47,0,0,0-3.52,0,2.54,2.54,0,0,0,0,3.56,2.47,2.47,0,0,0,3.52,0A2.53,2.53,0,0,0,313.36,220.54ZM200.27,203.72a5.23,5.23,0,0,1,.85,6.2l7.82,7.87v19.77H189.4l-8.58-8.64a5.13,5.13,0,0,1-5.42-1.2,5.24,5.24,0,0,1,0-7.36,5.14,5.14,0,0,1,7.3,0,5.22,5.22,0,0,1,.49,6.77l7.25,7.3h15.51v-15.6l-6.84-6.89a5.11,5.11,0,0,1-6.12-.87,5.22,5.22,0,0,1,0-7.35A5.14,5.14,0,0,1,200.27,203.72Zm-19.76,18.89a2.09,2.09,0,0,0-2.95,0,2.06,2.06,0,0,0,0,2.93,2.08,2.08,0,1,0,2.94-2.93Zm14.63-13.71a2.09,2.09,0,0,0,3,0,2.08,2.08,0,1,0-3,0Zm2.79,9.15a6.27,6.27,0,0,1,0,8.83,6.22,6.22,0,0,1-9.83-7.41L174,205.11l2-2,14.07,14.16A6.19,6.19,0,0,1,197.93,218.05Zm-6.17,6.2a2.5,2.5,0,1,0,0-3.52A2.47,2.47,0,0,0,191.76,224.25ZM179.81,333.58l7.87-7.85h19.77v19.61L198.81,354a5.14,5.14,0,0,1-1.2,5.43,5.22,5.22,0,0,1-7.36,0,5.19,5.19,0,0,1,6.78-7.81l7.29-7.28V328.74h-15.6l-6.89,6.87a5.14,5.14,0,0,1-.87,6.14,5.23,5.23,0,0,1-7.36,0,5.18,5.18,0,0,1,6.21-8.18Zm15.62,20.68a2.05,2.05,0,0,0-2.93,0,2.09,2.09,0,0,0,0,2.95,2.06,2.06,0,0,0,2.94,0A2.09,2.09,0,0,0,195.43,354.26Zm-19.58-14.68a2.06,2.06,0,0,0,2.93,0,2.08,2.08,0,1,0-2.93-2.95A2.11,2.11,0,0,0,175.85,339.58Zm12.09-2.8a6.23,6.23,0,1,1,1.42,9.85L175,360.77l-2-2,14.16-14.12A6.23,6.23,0,0,1,187.94,336.78Zm2.68,6.19a2.47,2.47,0,0,0,3.52,0,2.53,2.53,0,0,0,0-3.56,2.49,2.49,0,0,0-3.53,0A2.53,2.53,0,0,0,190.62,343Zm114.53,17.51a5.21,5.21,0,0,1-.85-6.19l-7.84-7.85V326.7H316l8.6,8.62a5.2,5.2,0,1,1-2.37,1.78L315,329.82H299.47V345.4l6.85,6.87a5.14,5.14,0,0,1,6.13.87,5.21,5.21,0,0,1,0,7.35A5.16,5.16,0,0,1,305.15,360.48Zm19.79-18.86a2.09,2.09,0,0,0,2.95,0,2.05,2.05,0,0,0,0-2.93,2.09,2.09,0,0,0-2.95,0A2.07,2.07,0,0,0,324.94,341.62Zm-14.66,13.7a2.09,2.09,0,0,0-2.95,0,2.06,2.06,0,0,0,0,2.93,2.09,2.09,0,0,0,3,0A2.06,2.06,0,0,0,310.28,355.32Zm-2.79-9.14a6.23,6.23,0,1,1,9.84-1.42l14.11,14.34-2,2L315.35,347A6.22,6.22,0,0,1,307.49,346.18Zm6.19-6.2a2.54,2.54,0,0,0-3.56,0,2.48,2.48,0,0,0,0,3.52,2.53,2.53,0,0,0,3.55,0A2.47,2.47,0,0,0,313.68,340Z" transform="translate(-122.19 -151.13)"/><path class="cls-4" d="M252.67,260a22.28,22.28,0,1,0,22.27,22.28A22.28,22.28,0,0,0,252.67,260Zm0,39.81a17.54,17.54,0,1,1,17.54-17.53A17.54,17.54,0,0,1,252.67,299.82Z" transform="translate(-122.19 -151.13)"/><path class="cls-4" d="M252.67,274.69a7.6,7.6,0,1,0,7.59,7.6A7.59,7.59,0,0,0,252.67,274.69Zm0,10.85a3.26,3.26,0,1,1,3.25-3.25A3.25,3.25,0,0,1,252.67,285.54Z" transform="translate(-122.19 -151.13)"/><path class="cls-5" d="M383.37,257.17V252H347.12l-28,27h-29.8a36.28,36.28,0,0,0-6.57-18l-3.92,2.94s5.73,8.23,5.73,17.68c0,14.47-7.91,21.2-7.91,21.2v24.6l-.39.21A58,58,0,0,1,260.75,333l.41,5.43a69.77,69.77,0,0,0,15.52-4.9v17.16l24.52,24.59a6.72,6.72,0,1,0,6-3.81,6.65,6.65,0,0,0-2.2.39l-23.18-23.25v-17.8a64.69,64.69,0,0,0,10.71-8.09l-3.42-3.92a47.29,47.29,0,0,1-7.29,5.64V303.91s6.3-6.83,7.42-18.7h29.87l28,28.05h36.25v-5.2H349.19l-24.86-26,24.86-24.93ZM307.24,376.62a1.56,1.56,0,1,1-1.56,1.56A1.56,1.56,0,0,1,307.24,376.62Z" transform="translate(-122.19 -151.13)"/><path class="cls-5" d="M249.8,245.42a33.67,33.67,0,0,0-18.43,6.76l2.94,3.91s5.32-5.87,18.12-5.87a33.25,33.25,0,0,1,21.2,7.93h24.59l.23.39a51.23,51.23,0,0,1,5.38,16.16l5.39-1a70.34,70.34,0,0,0-4.89-15.57h17.16l24.59-24.6a6.9,6.9,0,1,0-3.41-3.85L319.41,253H301.57a71,71,0,0,0-9-11.54l-3.91,3.91a57.37,57.37,0,0,1,6.28,7.63H274.73s-6.83-6.31-18.7-7.44v-30l28.05-28.06V151.13h-5.19v34.29l-26,24.93L228,185.42V151.13h-5.2v36.36l27,28.06ZM349,225.94a1.56,1.56,0,1,1-1.56,1.56A1.56,1.56,0,0,1,349,225.94Z" transform="translate(-122.19 -151.13)"/><path class="cls-5" d="M277.85,213.47v18.09a46.57,46.57,0,0,0-5.35-2.39,48.45,48.45,0,0,0-6.86-2l-1,4.89a56.82,56.82,0,0,1,6.95,2.09,45,45,0,0,1,11.43,6.66v-25.3l21.43-20.46a6.74,6.74,0,1,0-3.77-6,6.58,6.58,0,0,0,.39,2.18Zm29.61-26a1.56,1.56,0,1,1-1.56,1.56A1.56,1.56,0,0,1,307.46,187.49Z" transform="translate(-122.19 -151.13)"/><path class="cls-5" d="M186.29,285.35H216a36.3,36.3,0,0,0,6.56,18l3.91-2.94s-5.72-8.25-5.72-17.71c0-14.5,7.89-21.24,7.89-21.24V236.85l.4-.21a57.83,57.83,0,0,1,16-5.35l-.9-5.44a87.2,87.2,0,0,0-15.5,5V213.57l-24.47-24.63a6.7,6.7,0,1,0-6,3.82,6.59,6.59,0,0,0,2.19-.4l23.15,23.29v17.76a53.54,53.54,0,0,0-11.23,9l3.91,3.42a45.88,45.88,0,0,1,7.32-5.91v20.49s-6.28,6.83-7.4,18.72H186.29L158.38,251H122.19v5.21h34.12l24.81,26-24.81,25H122.19v5.21h36.19Zm11.89-97.79a1.56,1.56,0,1,1,1.56-1.56A1.56,1.56,0,0,1,198.18,187.56Z" transform="translate(-122.19 -151.13)"/><path class="cls-5" d="M159.93,234.38a6.83,6.83,0,0,0,2.17-.39l22.12,23.27h17.52a47.53,47.53,0,0,0-2.38,5.36,38.12,38.12,0,0,0-1.77,6.2l5.39,1.47a40.78,40.78,0,0,1,1.86-6.78,45,45,0,0,1,6.64-11.45H186.29L165.93,230.6a6.69,6.69,0,1,0-6,3.78Zm0-8.33a1.56,1.56,0,1,1-1.55,1.56A1.56,1.56,0,0,1,159.93,226.05Z" transform="translate(-122.19 -151.13)"/><path class="cls-5" d="M255.24,318.62a33.74,33.74,0,0,0,18.46-6.74L270.75,308s-5.33,5.87-18.14,5.87a33.4,33.4,0,0,1-21.24-7.91H207.2a53.69,53.69,0,0,1-5.2-15.55l-5.39,1a47.33,47.33,0,0,0,4,14.57H183.45l-24.62,24.55a6.88,6.88,0,1,0,3.42,3.85l23.29-23.22h17.83a69,69,0,0,0,8.42,11.09l3.92-3.92a46.51,46.51,0,0,1-5.44-7.17h20s6.83,6.31,18.72,7.43v29.92l-28.09,28v36.31h5.2V378.54l26-24.9,25,24.9v34.23h5.21V376.46l-27.06-28Zm-99.36,19.46a1.56,1.56,0,1,1,1.56-1.56A1.56,1.56,0,0,1,155.88,338.08Z" transform="translate(-122.19 -151.13)"/><path class="cls-5" d="M227.15,350.53V333a46.3,46.3,0,0,0,5.36,2.39,48.39,48.39,0,0,0,6.87,2l1-4.89s-3.56-1.27-7-2.57A44.88,44.88,0,0,1,222,323.18v25.27l-21.47,20.43a6.72,6.72,0,1,0,3.78,6,6.58,6.58,0,0,0-.39-2.18ZM197.5,376.46a1.56,1.56,0,1,1,1.56-1.55A1.55,1.55,0,0,1,197.5,376.46Z" transform="translate(-122.19 -151.13)"/><path class="cls-5" d="M345.56,329.88a6.52,6.52,0,0,0-2.17.39L321.22,307H303.67a46.3,46.3,0,0,0,2.39-5.36,33.84,33.84,0,0,0,1.69-5.92l-5.39-1a40,40,0,0,1-1.79,6,44.78,44.78,0,0,1-6.65,11.43h25.23l20.4,21.43a6.62,6.62,0,0,0-.72,3,6.73,6.73,0,1,0,6.73-6.75Zm0,8.31a1.56,1.56,0,1,1,1.55-1.56A1.55,1.55,0,0,1,345.56,338.19Z" transform="translate(-122.19 -151.13)"/><polygon class="cls-6" points="254 147.05 231.14 147.05 215.56 131.46 231.14 114.84 254 114.84 254 119 233.22 119 221.79 131.46 233.22 142.89 254 142.89 254 147.05"/><polygon class="cls-6" points="115.14 30.13 115.14 7.27 119.3 7.27 119.3 28.05 130.73 39.48 143.19 28.05 143.19 7.27 147.35 7.27 147.35 30.13 130.73 45.72 115.14 30.13"/><polygon class="cls-6" points="7.58 115.33 30.43 115.33 46.02 131.95 30.43 147.54 7.58 147.54 7.58 143.38 28.36 143.38 39.78 131.95 28.36 119.48 7.58 119.48 7.58 115.33"/><polygon class="cls-6" points="146.86 231.82 146.86 254.67 142.71 254.67 142.71 233.89 130.24 222.47 118.81 233.89 118.81 254.67 114.65 254.67 114.65 231.82 130.24 216.23 146.86 231.82"/><path class="cls-7" d="M364.24,275.32a6.76,6.76,0,1,0,6.75,6.75A6.76,6.76,0,0,0,364.24,275.32Zm0,9.35a2.6,2.6,0,1,1,2.59-2.6A2.59,2.59,0,0,1,364.24,284.67Z" transform="translate(-122.19 -151.13)"/><path class="cls-7" d="M253.43,163.6a6.75,6.75,0,1,0,6.76,6.75A6.75,6.75,0,0,0,253.43,163.6Zm0,9.35a2.6,2.6,0,1,1,2.6-2.6A2.59,2.59,0,0,1,253.43,173Z" transform="translate(-122.19 -151.13)"/><path class="cls-7" d="M141.71,275.81a6.76,6.76,0,1,0,6.76,6.75A6.75,6.75,0,0,0,141.71,275.81Zm0,9.35a2.6,2.6,0,1,1,2.6-2.6A2.6,2.6,0,0,1,141.71,285.16Z" transform="translate(-122.19 -151.13)"/><path class="cls-7" d="M252.94,387.1a6.76,6.76,0,1,0,6.76,6.76A6.76,6.76,0,0,0,252.94,387.1Zm0,9.35a2.6,2.6,0,1,1,2.6-2.59A2.59,2.59,0,0,1,252.94,396.45Z" transform="translate(-122.19 -151.13)"/><path class="cls-3" d="M544.51,314.86c-13.1,0-28.8-5.49-28.8-31.78s15.7-31.77,28.8-31.77a50.62,50.62,0,0,1,19,3.71v8a43.86,43.86,0,0,0-17.93-3.9c-14.69,0-20.91,7.16-20.91,24s6.22,24,20.91,24a43.86,43.86,0,0,0,17.93-3.9v8A50.62,50.62,0,0,1,544.51,314.86Z" transform="translate(-122.19 -151.13)"/><polygon class="cls-3" points="348.23 101.02 388.66 101.02 388.66 109.1 356.88 109.1 356.88 127.96 384.85 127.96 384.85 136.04 356.88 136.04 356.88 154.9 388.66 154.9 388.66 162.98 348.23 162.98 348.23 101.02"/><polygon class="cls-3" points="321.26 162.98 312.71 162.98 312.71 109.1 291.8 109.1 291.8 101.02 342.26 101.02 342.26 109.1 321.26 109.1 321.26 162.98"/></svg>