<svg width="480" height="150" xmlns="http://www.w3.org/2000/svg" xmlns:xlink="http://www.w3.org/1999/xlink">
 <style type="text/css">.st0{fill:#B81212;}
	.st1{clip-path:url(#SVGID_2_);fill-rule:evenodd;clip-rule:evenodd;fill:#F8C700;}
	.st2{fill-rule:evenodd;clip-rule:evenodd;fill:#008037;}
	.st3{fill-rule:evenodd;clip-rule:evenodd;fill:none;}
	.st4{fill-rule:evenodd;clip-rule:evenodd;fill:#004AAD;}</style>
 <g>
  <title>background</title>
  <rect fill="none" id="canvas_background" height="152" width="482" y="-1" x="-1"/>
 </g>
 <g>
  <title>Layer 1</title>
  <polygon id="svg_1" points="117.41999816894531,68.3699951171875 99.19999694824219,32.6099853515625 80.97999572753906,68.3699951171875 77,76.1400146484375 85.69999694824219,76.1400146484375 89.67999267578125,68.3699951171875 99.19999694824219,49.709991455078125 108.72000122070312,68.3699951171875 112.69999694824219,76.1400146484375 121.39999389648438,76.1400146484375 "/>
  <polygon id="svg_2" points="156.92001342773438,32.6099853515625 156.92001342773438,60.350006103515625 128.92999267578125,38.760009765625 121.14999389648438,32.790008544921875 121.14999389648438,76.20999145507812 128.92999267578125,76.20999145507812 128.92999267578125,48.649993896484375 156.92001342773438,70.23001098632812 164.69000244140625,76.20999145507812 164.69000244140625,32.670013427734375 "/>
  <path id="svg_3" d="m188.7,40.38l21.77,0l0,-7.77l-21.77,0c-12,0 -21.77,9.76 -21.77,21.77s9.76,21.77 21.77,21.77l21.77,0l0,-23.88l-21.77,0l0,7.77l13.99,0l0,8.33l-13.99,0c-7.71,0 -13.99,-6.28 -13.99,-13.99c0,-7.72 6.28,-14 13.99,-14z"/>
  <path id="svg_4" d="m248.47,32.61l0,21.77c0,7.71 -6.28,13.99 -13.99,13.99s-13.99,-6.28 -13.99,-13.99l0,-21.77l-7.77,0l0,21.77c0,12 9.76,21.77 21.77,21.77c12,0 21.77,-9.76 21.77,-21.77l0,-21.77l-7.79,0z"/>
  <polygon id="svg_5" points="296.489990234375,68.3699951171875 278.260009765625,32.6099853515625 260.0400085449219,68.3699951171875 256.05999755859375,76.1400146484375 264.7699890136719,76.1400146484375 268.75,68.3699951171875 278.260009765625,49.709991455078125 287.7799987792969,68.3699951171875 291.760009765625,76.1400146484375 300.4700012207031,76.1400146484375 "/>
  <path id="svg_6" d="m307.93,48.47l0,-8.02l19.72,0c1.37,0 2.3,0.62 2.8,1.12c0.44,0.44 1.18,1.43 1.18,2.86c0,1.55 -0.93,2.99 -2.36,3.61c-0.5,0.25 -1.06,0.37 -1.62,0.37l-19.72,0.06zm21.21,7.58c1.18,-0.12 2.3,-0.44 3.36,-0.93c4.04,-1.87 6.84,-5.97 6.84,-10.7c0,-3.23 -1.31,-6.16 -3.42,-8.33c-2.11,-2.11 -5.04,-3.42 -8.27,-3.42l-27.49,0l0,43.54l7.77,0l0,-20.03l7.77,0c2.8,0 5.22,1.49 6.59,3.73l0.19,0.37l4.17,8.15l3.98,7.77l8.71,0l-3.98,-7.77l-6.22,-12.38z"/>
  <path id="svg_7" d="m349.35,40.44l13.99,0c7.71,0 13.99,6.28 13.99,13.99s-6.28,13.99 -13.99,13.99l-13.99,0l0,-27.98zm-7.71,-7.83l0,43.54l21.77,0c5.97,0 11.38,-2.43 15.3,-6.41c0.44,-0.44 0.87,-0.87 1.24,-1.31c3.23,-3.79 5.16,-8.71 5.16,-14.06c0,-12 -9.76,-21.71 -21.77,-21.71l-21.7,-0.05z"/>
  <polygon id="svg_8" points="78.8800048828125,29.839996337890625 72.14999389648438,42.989990234375 56.07000732421875,74.52999877929688 39.97999572753906,42.989990234375 33.25,29.839996337890625 18.529998779296875,29.839996337890625 25.259994506835938,42.989990234375 56.07000732421875,103.45001220703125 86.8699951171875,42.989990234375 93.60000610351562,29.839996337890625 " class="st0"/>
  <polygon id="svg_9" points="67.96000671386719,83.79000854492188 67.96000671386719,89.73001098632812 81.58999633789062,89.73001098632812 81.58999633789062,117.04998779296875 87.53999328613281,117.04998779296875 87.53999328613281,89.73001098632812 101.17999267578125,89.73001098632812 101.17999267578125,83.79000854492188 "/>
  <path id="svg_10" d="m111.91,89.68l24.29,0l0,-5.94l-24.29,0c-4.94,0 -8.93,4.04 -8.93,8.98l0,15.3c0,4.94 3.99,8.98 8.93,8.98l24.29,0l0,-5.94l-24.29,0c-1.66,0 -3.04,-1.38 -3.04,-3.04l0,-6.27l21.39,0l0,-5.94l-21.39,0l0,-3.09c0,-1.66 1.38,-3.04 3.04,-3.04z"/>
  <path id="svg_11" d="m154.06,89.68l16.63,0l0,-5.94l-16.63,0c-9.17,0 -16.63,7.46 -16.63,16.63s7.46,16.63 16.63,16.63l16.63,0l0,-5.94l-16.63,0c-5.89,0 -10.69,-4.8 -10.69,-10.69c0,-5.89 4.8,-10.69 10.69,-10.69z"/>
  <polygon id="svg_12" points="199.73001098632812,83.739990234375 199.73001098632812,95.80999755859375 178.33999633789062,95.80999755859375 178.33999633789062,83.739990234375 172.39999389648438,83.739990234375 172.39999389648438,117.010009765625 178.33999633789062,117.010009765625 178.33999633789062,101.75 199.73001098632812,101.75 199.73001098632812,117.010009765625 205.67001342773438,117.010009765625 205.67001342773438,83.739990234375 "/>
  <polygon id="svg_13" points="234.70001220703125,83.739990234375 234.70001220703125,104.94000244140625 213.32000732421875,88.44000244140625 207.3800048828125,83.8800048828125 207.3800048828125,117.04998779296875 213.32000732421875,117.04998779296875 213.32000732421875,96 234.70001220703125,112.489990234375 240.6400146484375,117.04998779296875 240.6400146484375,83.79000854492188 "/>
  <path id="svg_14" d="m257.79,111.07c-5.89,0 -10.69,-4.8 -10.69,-10.69c0,-5.89 4.8,-10.69 10.69,-10.69c5.89,0 10.69,4.8 10.69,10.69c0.01,5.89 -4.79,10.69 -10.69,10.69zm0,-27.33c-9.17,0 -16.63,7.46 -16.63,16.63s7.46,16.63 16.63,16.63s16.63,-7.46 16.63,-16.63s-7.45,-16.63 -16.63,-16.63z"/>
  <path id="svg_15" d="m284.93,111.07c-2.09,-0.29 -3.75,-1.95 -4.04,-4.04l0,-23.24l-5.94,0l0,22.67c0,1.66 0.38,3.23 1.09,4.66c1,2.09 2.71,3.8 4.8,4.85c1.43,0.71 2.99,1.09 4.66,1.09l16.87,0l0,-5.94l-17.44,-0.05z"/>
  <path id="svg_16" d="m319.52,111.07c-5.89,0 -10.69,-4.8 -10.69,-10.69c0,-5.89 4.8,-10.69 10.69,-10.69c5.89,0 10.69,4.8 10.69,10.69c0,5.89 -4.8,10.69 -10.69,10.69zm0,-27.33c-9.17,0 -16.63,7.46 -16.63,16.63s7.46,16.63 16.63,16.63s16.63,-7.46 16.63,-16.63s-7.46,-16.63 -16.63,-16.63z"/>
  <path id="svg_17" d="m353.31,89.68l16.63,0l0,-5.94l-16.63,0c-9.17,0 -16.63,7.46 -16.63,16.63s7.46,16.63 16.63,16.63l16.63,0l0,-18.25l-16.63,0l0,5.94l10.69,0l0,6.37l-10.69,0c-5.89,0 -10.69,-4.8 -10.69,-10.69c-0.01,-5.89 4.79,-10.69 10.69,-10.69z"/>
  <rect id="svg_18" height="33.27" width="5.94" y="83.74" x="371.65"/>
  <path id="svg_19" d="m388.28,89.68l24.29,0l0,-5.94l-24.29,0c-4.94,0 -8.93,4.04 -8.93,8.98l0,15.3c0,4.94 3.99,8.98 8.93,8.98l24.29,0l0,-5.94l-24.29,0c-1.66,0 -3.04,-1.38 -3.04,-3.04l0,-6.27l21.39,0l0,-5.94l-21.39,0l0,-3.09c0,-1.66 1.38,-3.04 3.04,-3.04z"/>
  <path id="svg_20" d="m445.73,92.91l0,-0.19c0,-4.94 -4.04,-8.98 -8.98,-8.98l-13.5,0c-4.94,0 -8.93,4.04 -8.93,8.98l0,0.19c0,1.9 0.57,3.66 1.57,5.09c0.33,0.52 0.71,1 1.14,1.43c1.62,1.57 3.8,2.52 6.23,2.52l11.98,0c2.52,0 4.61,2.04 4.61,4.56s-2.09,4.56 -4.61,4.56l-10.41,0c-2.52,0 -4.56,-2.04 -4.56,-4.56l-5.94,0c0,5.8 4.71,10.5 10.5,10.5l10.41,0c5.8,0 10.5,-4.71 10.5,-10.5c0,-2.52 -0.9,-4.85 -2.38,-6.65c-0.14,-0.14 -0.24,-0.29 -0.38,-0.43c-1.9,-2.09 -4.66,-3.42 -7.75,-3.42l-11.98,0c-1.66,0 -3.04,-1.38 -3.04,-3.04l0,-0.19c0,-1.66 1.38,-3.04 3.04,-3.04l13.5,0c1.66,0 3.04,1.38 3.04,3.04l0,0.19l5.94,-0.06z"/>
  <g id="svg_21">
   <defs transform="translate(0,-1) translate(1,1) translate(-139,-290) ">
    <rect height="44.25" width="32.67" y="323.08" x="520.82" id="SVGID_1_"/>
   </defs>
   <clipPath transform="translate(0,-1) translate(1,1) translate(-139,-290) " id="SVGID_2_">
    <use id="svg_22" xlink:href="#SVGID_1_"/>
   </clipPath>
   <path id="svg_23" d="m391.79,42.2c0,1.45 -1.17,2.62 -2.6,2.62c-1.44,0 -2.6,-1.17 -2.6,-2.62c0,-1.45 1.17,-2.62 2.6,-2.62c1.43,0 2.6,1.18 2.6,2.62l0,0zm3.72,6.5c0,1.45 -1.17,2.62 -2.6,2.62c-1.44,0 -2.6,-1.17 -2.6,-2.62s1.17,-2.62 2.6,-2.62c1.44,0 2.61,1.18 2.6,2.62l0,0zm3.73,6.51c0,1.45 -1.17,2.62 -2.6,2.62c-1.44,0 -2.6,-1.17 -2.6,-2.62c0,-1.45 1.17,-2.62 2.6,-2.62c1.44,0 2.6,1.17 2.6,2.62l0,0zm-3.46,-19.51c0,1.45 -1.17,2.62 -2.6,2.62c-1.44,0 -2.6,-1.17 -2.6,-2.62c0,-1.45 1.17,-2.62 2.61,-2.62c1.43,0 2.59,1.17 2.59,2.62l0,0zm3.72,6.5c0,1.45 -1.17,2.62 -2.6,2.62c-1.44,0 -2.6,-1.17 -2.6,-2.62c0,-1.45 1.17,-2.62 2.6,-2.62c1.44,0 2.61,1.18 2.6,2.62l0,0zm3.74,6.51c0,1.45 -1.17,2.62 -2.6,2.62c-1.44,0 -2.6,-1.17 -2.6,-2.62s1.17,-2.62 2.6,-2.62c1.43,-0.01 2.6,1.17 2.6,2.62l0,0zm3.72,6.5c0,1.45 -1.17,2.62 -2.6,2.62c-1.44,0 -2.6,-1.17 -2.6,-2.62c0,-1.45 1.17,-2.62 2.6,-2.62s2.61,1.17 2.6,2.62l0,0zm-3.46,-19.51c0,1.45 -1.17,2.62 -2.6,2.62c-1.44,0 -2.6,-1.17 -2.6,-2.62s1.17,-2.62 2.61,-2.62s2.59,1.18 2.59,2.62l0,0zm3.73,6.5c0,1.45 -1.17,2.62 -2.6,2.62c-1.44,0 -2.6,-1.17 -2.6,-2.62c0,-1.45 1.17,-2.62 2.6,-2.62c1.44,0 2.6,1.18 2.6,2.62l0,0zm3.73,6.51c0,1.45 -1.17,2.62 -2.6,2.62c-1.44,0 -2.6,-1.17 -2.6,-2.62c0,-1.45 1.17,-2.62 2.6,-2.62c1.43,-0.01 2.6,1.17 2.6,2.62l0,0zm3.72,6.5c0,1.45 -1.17,2.62 -2.6,2.62c-1.44,0 -2.6,-1.17 -2.6,-2.62c0,-1.45 1.17,-2.62 2.6,-2.62c1.44,0 2.61,1.17 2.6,2.62l0,0zm-11.18,19.5c0,-1.45 -1.17,-2.62 -2.6,-2.62c-1.44,0 -2.6,1.17 -2.6,2.62c0,1.45 1.17,2.62 2.6,2.62c1.43,0 2.6,-1.17 2.6,-2.62l0,0zm3.73,-6.5c0,-1.45 -1.17,-2.62 -2.6,-2.62c-1.44,0 -2.6,1.17 -2.6,2.62s1.17,2.62 2.6,2.62c1.44,0 2.6,-1.17 2.6,-2.62l0,0zm3.73,-6.5c0,-1.45 -1.17,-2.62 -2.6,-2.62c-1.44,0 -2.6,1.17 -2.6,2.62c0,1.45 1.17,2.62 2.6,2.62c1.43,0 2.6,-1.17 2.6,-2.62l0,0zm-15.18,13c0,-1.45 -1.17,-2.62 -2.6,-2.62c-1.44,0 -2.6,1.17 -2.6,2.62c0,1.45 1.17,2.62 2.6,2.62c1.44,0 2.6,-1.17 2.6,-2.62l0,0zm3.72,-6.5c0,-1.45 -1.17,-2.62 -2.6,-2.62c-1.44,0 -2.6,1.17 -2.6,2.62c0,1.45 1.17,2.62 2.6,2.62c1.44,0 2.61,-1.17 2.6,-2.62l0,0zm3.74,-6.5c0,-1.45 -1.17,-2.62 -2.6,-2.62c-1.44,0 -2.6,1.17 -2.6,2.62c0,1.45 1.17,2.62 2.6,2.62c1.43,0 2.6,-1.17 2.6,-2.62l0,0zm-15.19,13c0,-1.45 -1.17,-2.62 -2.6,-2.62c-1.44,0 -2.6,1.17 -2.6,2.62c0,1.45 1.17,2.62 2.6,2.62c1.44,0 2.61,-1.17 2.6,-2.62l0,0zm3.74,-6.5c0,-1.45 -1.17,-2.62 -2.6,-2.62c-1.44,0 -2.6,1.17 -2.6,2.62s1.17,2.62 2.6,2.62c1.43,0 2.6,-1.17 2.6,-2.62l0,0zm3.72,-6.5c0,-1.45 -1.17,-2.62 -2.6,-2.62c-1.44,0 -2.6,1.17 -2.6,2.62c0,1.45 1.17,2.62 2.6,2.62c1.44,0 2.61,-1.17 2.6,-2.62l0,0zm-7.46,-26.01c0,1.45 -1.17,2.62 -2.6,2.62c-1.44,0 -2.6,-1.17 -2.6,-2.62c0,-1.45 1.17,-2.62 2.61,-2.62c1.43,0 2.6,1.18 2.59,2.62l0,0z" class="st1"/>
  </g>
  <path id="svg_24" d="m415.31,43.52c0,1.28 -1.04,2.31 -2.33,2.31c-1.28,0 -2.33,-1.03 -2.33,-2.31c0,-1.28 1.04,-2.31 2.33,-2.31c1.29,0 2.33,1.03 2.33,2.31l0,0zm3.33,5.73c0,1.28 -1.04,2.31 -2.33,2.31c-1.28,0 -2.33,-1.03 -2.33,-2.31s1.04,-2.31 2.33,-2.31c1.29,0 2.33,1.03 2.33,2.31l0,0zm3.33,5.73c0,1.28 -1.04,2.31 -2.33,2.31c-1.28,0 -2.33,-1.03 -2.33,-2.31c0,-1.28 1.04,-2.31 2.33,-2.31c1.29,0 2.33,1.03 2.33,2.31l0,0zm-3.1,-17.19c0,1.28 -1.04,2.31 -2.33,2.31s-2.33,-1.03 -2.33,-2.31s1.05,-2.31 2.33,-2.31c1.3,0 2.34,1.03 2.33,2.31l0,0zm3.33,5.73c0,1.28 -1.04,2.31 -2.32,2.31c-1.28,0 -2.33,-1.03 -2.33,-2.31c0,-1.28 1.04,-2.31 2.33,-2.31c1.28,0 2.32,1.03 2.32,2.31l0,0zm3.34,5.73c0,1.28 -1.04,2.31 -2.33,2.31c-1.28,0 -2.33,-1.03 -2.33,-2.31s1.04,-2.31 2.33,-2.31c1.28,0 2.33,1.04 2.33,2.31l0,0zm3.32,5.73c0,1.28 -1.04,2.31 -2.33,2.31c-1.28,0 -2.33,-1.03 -2.33,-2.31c0,-1.28 1.04,-2.31 2.33,-2.31s2.34,1.03 2.33,2.31l0,0zm-3.09,-17.19c0,1.28 -1.04,2.31 -2.33,2.31c-1.28,0 -2.33,-1.03 -2.33,-2.31s1.05,-2.31 2.33,-2.31s2.33,1.03 2.33,2.31l0,0zm3.33,5.73c0,1.28 -1.04,2.31 -2.33,2.31c-1.28,0 -2.33,-1.03 -2.33,-2.31c0,-1.28 1.04,-2.31 2.33,-2.31c1.29,0 2.33,1.04 2.33,2.31l0,0zm3.33,5.73c0,1.28 -1.04,2.31 -2.33,2.31c-1.28,0 -2.33,-1.03 -2.33,-2.31c0,-1.28 1.04,-2.31 2.33,-2.31c1.29,0 2.33,1.04 2.33,2.31l0,0zm3.33,5.73c0,1.28 -1.04,2.31 -2.33,2.31c-1.28,0 -2.33,-1.03 -2.33,-2.31c0,-1.28 1.04,-2.31 2.33,-2.31c1.29,0 2.33,1.04 2.33,2.31l0,0zm-9.99,17.19c0,-1.28 -1.04,-2.31 -2.33,-2.31c-1.28,0 -2.33,1.03 -2.33,2.31s1.04,2.31 2.33,2.31c1.29,0 2.33,-1.03 2.33,-2.31l0,0zm3.33,-5.73c0,-1.28 -1.04,-2.31 -2.33,-2.31c-1.28,0 -2.33,1.03 -2.33,2.31c0,1.28 1.04,2.31 2.33,2.31c1.29,0 2.33,-1.03 2.33,-2.31l0,0zm3.33,-5.73c0,-1.28 -1.04,-2.31 -2.33,-2.31c-1.28,0 -2.33,1.03 -2.33,2.31c0,1.28 1.04,2.31 2.33,2.31c1.29,0 2.33,-1.03 2.33,-2.31l0,0zm-13.56,11.46c0,-1.28 -1.04,-2.31 -2.33,-2.31s-2.33,1.03 -2.33,2.31s1.04,2.31 2.33,2.31c1.3,0 2.34,-1.03 2.33,-2.31l0,0zm3.33,-5.73c0,-1.28 -1.04,-2.31 -2.32,-2.31c-1.28,0 -2.33,1.03 -2.33,2.31c0,1.28 1.04,2.31 2.33,2.31c1.28,0 2.32,-1.03 2.32,-2.31l0,0zm3.34,-5.73c0,-1.28 -1.04,-2.31 -2.33,-2.31c-1.28,0 -2.33,1.03 -2.33,2.31c0,1.28 1.04,2.31 2.33,2.31c1.28,0 2.33,-1.03 2.33,-2.31l0,0zm-13.56,11.46c0,-1.28 -1.04,-2.31 -2.33,-2.31c-1.28,0 -2.33,1.03 -2.33,2.31s1.04,2.31 2.33,2.31c1.29,0 2.33,-1.03 2.33,-2.31l0,0zm3.33,-5.73c0,-1.28 -1.04,-2.31 -2.33,-2.31c-1.28,0 -2.33,1.03 -2.33,2.31c0,1.28 1.04,2.31 2.33,2.31c1.29,0 2.33,-1.03 2.33,-2.31l0,0zm3.33,-5.73c0,-1.28 -1.04,-2.31 -2.33,-2.31c-1.28,0 -2.33,1.03 -2.33,2.31c0,1.28 1.04,2.31 2.33,2.31c1.29,0 2.33,-1.03 2.33,-2.31l0,0zm-6.66,-22.92c0,1.28 -1.04,2.31 -2.33,2.31c-1.28,0 -2.33,-1.03 -2.33,-2.31c0,-1.28 1.05,-2.31 2.33,-2.31c1.29,0 2.33,1.04 2.33,2.31l0,0z" class="st2"/>
  <rect id="svg_25" height="39" width="28.5" class="st3" y="35.48" x="407.79"/>
  <path id="svg_26" d="m436.73,44.45c0,1.18 -0.96,2.13 -2.15,2.13c-1.19,0 -2.15,-0.95 -2.15,-2.13c0,-1.18 0.96,-2.13 2.15,-2.13c1.19,-0.01 2.15,0.95 2.15,2.13l0,0zm3.07,5.29c0,1.18 -0.96,2.13 -2.15,2.13c-1.19,0 -2.15,-0.95 -2.15,-2.13c0,-1.18 0.96,-2.13 2.15,-2.13c1.19,-0.01 2.15,0.95 2.15,2.13l0,0zm3.07,5.28c0,1.18 -0.96,2.13 -2.15,2.13c-1.19,0 -2.15,-0.95 -2.15,-2.13c0,-1.18 0.96,-2.13 2.15,-2.13c1.2,0 2.16,0.96 2.15,2.13l0,0zm-2.85,-15.86c0,1.18 -0.96,2.13 -2.15,2.13c-1.19,0 -2.15,-0.95 -2.15,-2.13c0,-1.18 0.97,-2.13 2.15,-2.13c1.19,-0.01 2.15,0.95 2.15,2.13l0,0zm3.07,5.29c0,1.18 -0.96,2.13 -2.15,2.13c-1.19,0 -2.15,-0.95 -2.15,-2.13c0,-1.18 0.96,-2.13 2.15,-2.13c1.19,-0.01 2.15,0.95 2.15,2.13l0,0zm3.08,5.29c0,1.18 -0.96,2.13 -2.15,2.13c-1.19,0 -2.15,-0.95 -2.15,-2.13c0,-1.18 0.96,-2.13 2.15,-2.13c1.18,-0.01 2.15,0.95 2.15,2.13l0,0zm3.07,5.28c0,1.18 -0.96,2.13 -2.15,2.13c-1.19,0 -2.15,-0.95 -2.15,-2.13c0,-1.18 0.96,-2.13 2.15,-2.13c1.19,0 2.15,0.96 2.15,2.13l0,0zm-2.85,-15.86c0,1.18 -0.96,2.13 -2.15,2.13c-1.18,0 -2.15,-0.95 -2.15,-2.13c0,-1.18 0.97,-2.13 2.15,-2.13c1.18,-0.01 2.15,0.95 2.15,2.13l0,0zm3.07,5.29c0,1.18 -0.96,2.13 -2.15,2.13s-2.15,-0.95 -2.15,-2.13s0.96,-2.13 2.15,-2.13c1.19,-0.01 2.15,0.95 2.15,2.13l0,0zm3.07,5.29c0,1.18 -0.96,2.13 -2.15,2.13c-1.19,0 -2.15,-0.95 -2.15,-2.13s0.96,-2.13 2.15,-2.13c1.19,-0.01 2.15,0.95 2.15,2.13l0,0zm3.08,5.28c0,1.18 -0.96,2.13 -2.15,2.13s-2.15,-0.95 -2.15,-2.13c0,-1.18 0.96,-2.13 2.15,-2.13c1.19,0 2.15,0.96 2.15,2.13l0,0zm-9.22,15.87c0,-1.18 -0.96,-2.13 -2.15,-2.13c-1.18,0 -2.15,0.95 -2.15,2.13c0,1.18 0.96,2.13 2.15,2.13c1.18,0 2.15,-0.95 2.15,-2.13l0,0zm3.07,-5.29c0,-1.18 -0.96,-2.13 -2.15,-2.13s-2.15,0.95 -2.15,2.13s0.96,2.13 2.15,2.13c1.19,0.01 2.15,-0.95 2.15,-2.13l0,0zm3.07,-5.29c0,-1.18 -0.96,-2.13 -2.15,-2.13c-1.19,0 -2.15,0.95 -2.15,2.13c0,1.18 0.96,2.13 2.15,2.13c1.19,0.01 2.15,-0.95 2.15,-2.13l0,0zm-12.51,10.58c0,-1.18 -0.96,-2.13 -2.15,-2.13c-1.19,0 -2.15,0.95 -2.15,2.13c0,1.18 0.96,2.13 2.15,2.13c1.19,0 2.15,-0.95 2.15,-2.13l0,0zm3.07,-5.29c0,-1.18 -0.96,-2.13 -2.15,-2.13c-1.19,0 -2.15,0.95 -2.15,2.13c0,1.18 0.96,2.13 2.15,2.13c1.19,0.01 2.15,-0.95 2.15,-2.13l0,0zm3.08,-5.29c0,-1.18 -0.96,-2.13 -2.15,-2.13c-1.19,0 -2.15,0.95 -2.15,2.13c0,1.18 0.96,2.13 2.15,2.13c1.18,0.01 2.15,-0.95 2.15,-2.13l0,0zm-12.52,10.58c0,-1.18 -0.96,-2.13 -2.15,-2.13c-1.19,0 -2.15,0.95 -2.15,2.13c0,1.18 0.96,2.13 2.15,2.13c1.19,0 2.15,-0.95 2.15,-2.13l0,0zm3.08,-5.29c0,-1.18 -0.96,-2.13 -2.15,-2.13c-1.19,0 -2.15,0.95 -2.15,2.13s0.96,2.13 2.15,2.13c1.19,0.01 2.15,-0.95 2.15,-2.13l0,0zm3.07,-5.29c0,-1.18 -0.96,-2.13 -2.15,-2.13c-1.19,0 -2.15,0.95 -2.15,2.13c0,1.18 0.96,2.13 2.15,2.13c1.19,0.01 2.15,-0.95 2.15,-2.13l0,0zm-6.15,-21.15c0,1.18 -0.96,2.13 -2.15,2.13c-1.19,0 -2.15,-0.95 -2.15,-2.13c0,-1.18 0.97,-2.13 2.15,-2.13c1.2,-0.01 2.15,0.95 2.15,2.13l0,0z" class="st4"/>
  <polyline id="svg_27" points="429.52001953125,73.02999877929688 429.52001953125,37.029998779296875 456.52001953125,37.029998779296875 " class="st3"/>
 </g>
</svg>